<svg width="130" height="24" viewBox="0 0 130 24" fill="none" xmlns="http://www.w3.org/2000/svg">
<g clip-path="url(#clip0_4251_5426)">
<path d="M128.986 22.6726C128.986 21.2924 128.195 20.7941 126.896 20.7941H117.026C112.392 20.7941 110.753 17.8803 110.546 15.8675H124.24C128.233 15.8675 129.419 12.9346 129.419 11.056C129.419 9.04319 128.139 6.24446 124.24 6.24446H116.837C110.094 6.24446 107.89 10.9026 107.89 14.6982C107.89 18.8579 110.414 23.1519 116.818 23.1519H128.986V22.6726ZM117.045 8.60231H123.901C126.274 8.60231 126.839 10.0975 126.839 11.0752C126.839 11.9378 126.312 13.548 123.901 13.548H110.546C110.716 11.8419 112.09 8.60231 117.045 8.60231ZM89.1106 22.0784C88.4138 23.056 87.924 23.4011 87.3024 23.4011C86.436 23.4011 86.1157 22.9219 85.4943 22.0784C84.0063 20.0081 74.0985 6.24446 74.0985 6.24446H75.6242C77.2819 6.24446 77.7526 6.83872 78.4309 7.81636C78.7322 8.23807 87.3403 20.6023 87.3403 20.6023C87.3403 20.6023 95.9481 8.25724 96.2872 7.75884C96.9276 6.83872 97.4174 6.24446 99.0749 6.24446H100.412C100.412 6.24446 90.3352 20.3915 89.1106 22.0784ZM24.1646 23.1519C23.1286 23.1519 22.4693 22.6343 22.2811 21.5033L21.942 19.663C21.3769 20.7173 19.3049 23.1519 14.8031 23.1519H9.62326C2.57863 23.1519 0.582031 18.2828 0.582031 14.6982C0.582031 10.6534 2.97421 6.24446 9.62326 6.24446H14.8031C19.8511 6.24446 22.6389 9.23489 23.317 12.8771C23.882 15.925 25.2005 23.1519 25.2005 23.1519H24.1646ZM14.2192 8.60231H9.79278C4.8201 8.60231 3.12488 11.8228 3.12488 14.6982C3.12488 17.5736 4.8201 20.7941 9.79278 20.7941H14.2192C19.4179 20.7941 20.9248 17.4393 20.9248 14.6982C20.9248 12.2445 19.5686 8.60231 14.2192 8.60231ZM103.784 4.30835C104.519 4.30835 105.084 3.84829 105.084 2.9665V2.41058C105.084 1.52878 104.5 1.06872 103.784 1.06872C103.068 1.06872 102.484 1.50961 102.484 2.41058V2.9665C102.466 3.84829 103.049 4.30835 103.784 4.30835ZM102.503 6.24446H103.106C104.293 6.24446 105.046 6.78119 105.046 8.42976V23.1519H104.405C103.106 23.1519 102.484 22.4425 102.484 21.0241C102.503 20.8132 102.503 6.24446 102.503 6.24446ZM29.0995 8.44894C30.192 7.39462 32.1511 6.24446 35.2399 6.24446H40.4199C47.4646 6.24446 49.4612 11.1135 49.4612 14.6982C49.4612 18.7429 47.0689 23.1519 40.4199 23.1519H35.2399C30.192 23.1519 26.5567 19.8356 26.5567 14.6982V0.570312H27.3479C28.4781 0.570312 29.0995 1.16457 29.0995 2.23805V8.44894ZM35.8052 20.7941H40.2317C45.2044 20.7941 46.8996 17.5736 46.8996 14.6982C46.8996 11.8228 45.2044 8.60231 40.2317 8.60231H35.8052C30.6065 8.60231 29.0995 11.9569 29.0995 14.6982C29.0995 17.1518 30.437 20.7941 35.8052 20.7941ZM54.5657 8.44894C55.6583 7.39462 57.6171 6.24446 60.7062 6.24446H65.8862C72.9309 6.24446 74.9274 11.1135 74.9274 14.6982C74.9274 18.7429 72.5351 23.1519 65.8862 23.1519H60.7062C55.6583 23.1519 52.0229 19.8356 52.0229 14.6982V0.570312H52.8139C53.9441 0.570312 54.5657 1.16457 54.5657 2.23805V8.44894ZM61.2712 20.7941H65.6977C70.6704 20.7941 72.3656 17.5736 72.3656 14.6982C72.3656 11.8228 70.6704 8.60231 65.6977 8.60231H61.2712C56.0727 8.60231 54.5657 11.9569 54.5657 14.6982C54.5657 17.1518 55.9219 20.7941 61.2712 20.7941Z" fill="#071D49"/>
</g>
<defs>
<clipPath id="clip0_4251_5426">
<rect width="130" height="24" fill="white"/>
</clipPath>
</defs>
</svg>
