<svg width="78" height="24" viewBox="0 0 78 24" fill="none" xmlns="http://www.w3.org/2000/svg">
<g clip-path="url(#clip0_4251_5498)">
<mask id="mask0_4251_5498" style="mask-type:luminance" maskUnits="userSpaceOnUse" x="0" y="0" width="78" height="24">
<path d="M78 0H0V23.9326H78V0Z" fill="white"/>
</mask>
<g mask="url(#mask0_4251_5498)">
<path d="M75.9509 22.1885H76.1429C76.3561 22.1885 76.5482 22.127 76.5482 21.9424C76.5482 21.7988 76.4415 21.6964 76.1855 21.6964C76.0789 21.6964 76.015 21.7168 75.9722 21.7168V22.1885H75.9509ZM75.9296 23.1334H75.5243V21.4693C75.6736 21.4487 75.9083 21.4078 76.187 21.4078C76.507 21.4078 76.6563 21.4693 76.7858 21.5308C76.8711 21.5923 76.9564 21.7358 76.9564 21.8794C76.9564 22.064 76.8071 22.2076 76.5939 22.2691V22.2896C76.7644 22.3511 76.8497 22.4741 76.9137 22.6997C76.9776 22.9459 76.999 23.0483 77.0418 23.1098H76.6151C76.5725 23.0483 76.5298 22.9048 76.4872 22.7203C76.4446 22.5356 76.3593 22.4537 76.1246 22.4537H75.9326V23.1319L75.9296 23.1334ZM76.2068 20.9347C75.4375 20.9347 74.883 21.5308 74.883 22.2691C74.883 23.0074 75.4604 23.6036 76.2282 23.6036C76.996 23.6036 77.552 23.0074 77.552 22.2691C77.552 21.5308 76.9961 20.9347 76.2068 20.9347ZM76.2282 20.5859C77.2321 20.5859 78.0015 21.3257 78.0015 22.25C78.0015 23.1743 77.2321 23.9347 76.2282 23.9347C75.2242 23.9347 74.4336 23.1949 74.4336 22.25C74.4336 21.3052 75.2242 20.5859 76.2282 20.5859Z" fill="#02A6E3"/>
<path d="M9.12082 17.3622H15.7432L18.1776 23.2568H22.6414L13.0726 1.19922H9.67688L0 23.2568H4.05843C4.05843 23.2568 8.11688 13.6035 8.20218 13.4395C8.2875 13.2549 8.37282 13.0703 8.45813 12.8433C8.54343 12.6177 8.6714 12.3291 8.79937 11.9805L9.46207 10.46C9.67536 9.96631 9.84597 9.55615 9.97547 9.22803C10.1034 8.8794 10.2527 8.57031 10.3807 8.24218C10.5087 7.93458 10.6366 7.60498 10.7433 7.27686C10.8499 6.94873 10.9992 6.55762 11.1485 6.08593H11.2552C11.4045 6.55762 11.5538 6.94873 11.6604 7.27686C11.767 7.60498 11.8737 7.91406 11.9803 8.22168C12.087 8.50879 12.1936 8.83837 12.3429 9.18702C12.4709 9.53565 12.6415 9.94726 12.8548 10.46L13.5175 12.042C13.6454 12.3496 13.7734 12.6177 13.8587 12.8228C13.944 13.0278 14.0293 13.2329 14.0933 13.3984C14.1573 13.583 14.2426 13.7471 14.3279 13.9331C14.4132 14.1177 14.6265 14.5293 14.6265 14.5293H7.70554L9.11472 17.3637L9.12082 17.3622Z" fill="#02A6E3"/>
<path d="M32.0337 11.1841H27.9966C27.9966 11.2456 28.018 23.2603 28.018 23.2603H24.0662V11.1841H21.0117V8.41112H24.0662V6.78808C24.0662 5.80225 24.2155 4.89844 24.5353 4.09717C24.8339 3.2959 25.2833 2.59717 25.8805 2.02295C26.458 1.44727 27.1831 0.996094 28.0164 0.647461C28.8498 0.298828 29.7897 0.0922852 30.8149 0.0307617C31.3269 -0.0102539 31.755 -0.0102539 32.1175 0.0307617C32.4801 0.0717774 32.9081 0.153808 33.3987 0.256348L32.7786 3.00878C32.5228 2.96777 32.2882 2.94727 32.0734 2.92676C31.8586 2.90624 31.5827 2.92676 31.24 2.94727C30.0014 3.04981 29.1254 3.41894 28.6334 4.03564C28.3774 4.36376 28.2069 4.75487 28.12 5.18554C28.0347 5.6162 27.9921 6.31493 27.9921 7.25977V8.40967H32.0932V11.1826H32.0292L32.0337 11.1841Z" fill="#02A6E3"/>
<path d="M58.0281 21.0766C57.7936 21.0151 57.5802 20.8921 57.4295 20.7486C57.3442 20.646 57.2589 20.523 57.2161 20.4204C57.1522 20.3178 57.1096 20.1538 57.0882 19.9692C57.0456 19.7847 57.0243 19.5385 57.0243 19.2499C57.0029 18.9628 57.0029 18.5923 57.0029 18.1206V13.7466C57.0029 11.8569 56.6617 10.5019 55.9777 9.70068C55.4658 9.1455 54.8243 8.71483 53.9911 8.42773C53.179 8.14062 52.2391 7.97656 51.1925 7.97656C49.2913 7.97656 47.2833 8.51122 45.2115 9.55858V12.4136C46.2367 11.8994 47.1128 11.5303 47.8181 11.3047C48.5235 11.0791 49.2272 10.9355 49.9752 10.8945C50.9365 10.833 51.7059 10.9971 52.2817 11.4087C52.8592 11.8188 53.1364 12.3945 53.1364 13.1548V13.8945C51.6845 13.9971 50.5298 14.1611 49.3765 14.3867C48.2234 14.6123 47.3474 14.8789 46.7699 15.1675C45.9367 15.5776 45.2968 16.1533 44.8048 16.8726C44.3142 17.5918 44.0781 18.3726 44.0781 19.2133C44.0781 20.6094 44.462 21.6787 45.2527 22.417C45.6366 22.8066 46.15 23.1363 46.7471 23.3617C47.3459 23.5873 47.9644 23.7105 48.5843 23.7105C49.075 23.7105 49.503 23.6899 49.8656 23.6284C50.2495 23.5669 50.6136 23.4849 50.9975 23.3413C51.3814 23.2182 51.7669 23.0131 52.1934 22.7862C52.5987 22.54 53.0907 22.2309 53.6453 21.8208C53.9225 22.8271 54.7345 23.4234 56.0797 23.6079C56.4636 23.6488 56.8277 23.6694 57.1902 23.6488C57.5316 23.6284 58.0022 23.5669 58.5568 23.4643L59.0686 21.1236C58.5995 21.1645 58.2567 21.144 58.022 21.0825L58.0281 21.0766ZM53.0952 17.2359V20.0908C51.8781 20.7895 50.8955 21.1587 50.1688 21.1587C49.442 21.1587 48.8236 20.974 48.3742 20.583C47.9475 20.1933 47.7327 19.6792 47.7967 19.042C47.8394 18.1587 48.2873 17.4804 49.1207 17.0293C49.954 16.5576 51.1925 16.2486 53.0938 16.0024V17.2344L53.0952 17.2359Z" fill="#02A6E3"/>
<path d="M39.4049 0.269531H35.4531V23.253H39.4049V0.269531Z" fill="#02A6E3"/>
<path d="M70.844 12.2466C70.1813 11.8364 69.6054 11.5479 69.1133 11.3838C68.6229 11.2197 68.0881 11.1582 67.4894 11.1582C66.8907 11.1582 66.3361 11.2607 65.8441 11.4863C65.3307 11.7119 64.9042 12.021 64.5415 12.3901C64.1789 12.7798 63.8788 13.2324 63.6869 13.7861C63.4736 14.3208 63.3669 14.9155 63.3669 15.5527C63.3669 16.2514 63.4736 16.9077 63.6869 17.5039C63.9001 18.1002 64.2003 18.6127 64.5842 19.0449C64.9681 19.4755 65.4176 19.8052 65.9508 20.0512C66.4854 20.2974 67.0613 20.4204 67.6813 20.4204C68.0226 20.4204 68.344 20.4 68.6213 20.3794C68.8985 20.3383 69.1987 20.2974 69.4547 20.2153C69.7319 20.1333 70.0107 20.0308 70.2879 19.9077C70.5652 19.7847 70.908 19.6002 71.2705 19.4155L72.5731 22.0039C70.9704 23.1744 69.1134 23.7501 67.0415 23.7501C65.867 23.7501 64.8204 23.5654 63.859 23.1744C62.8977 22.7847 62.0857 22.2501 61.4246 21.5308C60.7405 20.832 60.2287 19.9692 59.8646 18.9834C59.502 17.9976 59.3086 16.8886 59.3086 15.6772C59.3086 14.6709 59.5218 13.6851 59.9499 12.7402C60.3764 11.7954 60.9538 10.9736 61.6806 10.2749C62.4072 9.57618 63.2406 9.00195 64.2003 8.59034C65.1616 8.18018 66.1656 7.95312 67.2122 7.95312C68.3227 7.95312 69.2626 8.07618 70.0746 8.30177C70.8866 8.52735 71.6774 8.91846 72.4878 9.47217L70.8425 12.2451L70.844 12.2466Z" fill="#02A6E3"/>
<path d="M36.2408 6.55616C36.0489 7.56251 35.7929 8.89698 34.917 9.80079C34.0836 10.6841 33.0157 11.3828 31.8411 12.0801C31.4359 12.3262 31.2852 12.5737 31.2852 12.9429C31.2852 13.2095 31.4131 13.4351 31.6263 13.4351C31.9035 13.4351 32.0742 13.2915 32.4811 13.2915C32.9944 13.2915 33.613 13.6812 33.9542 13.8672C33.5489 14.1543 32.7796 14.5454 32.7796 15.2016C32.7796 15.6953 33.357 16.331 34.8941 16.331C36.3246 16.331 38.2045 14.7695 39.1658 14.0518C39.6564 12.5313 38.7819 9.4712 36.2392 6.55469" fill="white"/>
<path d="M37.4549 22.7295C37.2005 23.3741 37.5265 23.648 38.0856 23.648C39.2403 21.0815 39.9715 17.459 40.1849 15.1226C39.8238 15.083 39.4734 15.0449 39.219 15.0156C39.219 18.2807 38.4162 20.4765 37.4549 22.7295Z" fill="white"/>
<path d="M38.0859 23.6426H40.6027C41.503 21.0615 41.5944 15.7779 41.5944 15.2594C41.2744 15.2403 40.72 15.1758 40.1868 15.1172C39.9689 17.4537 39.2407 21.0806 38.0875 23.6426H38.0859Z" fill="white"/>
<path d="M40.6016 23.641H40.9321C41.7502 21.2314 41.8979 15.81 41.8979 15.3354C41.7152 15.3105 41.6025 15.2578 41.5933 15.2578C41.5933 15.7764 41.5018 21.06 40.6016 23.641Z" fill="white"/>
<path d="M40.9297 23.644H41.0713C41.8545 21.3032 42.0265 15.8174 42.0326 15.3589C41.9869 15.3545 41.9367 15.3487 41.8955 15.3398C41.891 15.8144 41.7478 21.2359 40.9297 23.6455V23.644Z" fill="white"/>
<path d="M41.0742 23.6445H41.0848C41.868 21.3081 42.04 15.8179 42.0461 15.3594H42.031C42.031 15.8193 41.8587 21.3037 41.0758 23.6445H41.0742Z" fill="white"/>
<path d="M41.082 23.6445H41.1125C41.8909 21.3228 42.0676 15.8179 42.0782 15.3637C42.0676 15.3637 42.0584 15.3594 42.0478 15.3594C42.0433 15.8193 41.865 21.3139 41.082 23.6445Z" fill="white"/>
<path d="M41.1133 23.644H42.7967C43.1775 22.1046 43.6665 15.8028 43.7016 15.4806C43.6361 15.4702 42.7098 15.4366 42.0791 15.3633C42.0745 15.8175 41.8917 21.3267 41.1133 23.644Z" fill="white"/>
<path d="M42.7969 23.6439C43.1777 22.1045 43.6667 15.8027 43.7018 15.4805C43.7627 15.4907 43.8435 15.495 43.9455 15.5054C43.941 16.3901 43.5738 21.8598 43.2387 23.6439H42.7969Z" fill="white"/>
<path d="M43.2344 23.6435H43.7478C43.8955 22.6226 44.0372 20.9556 44.1347 19.3619C43.993 19.3574 43.8498 19.293 43.7172 19.2344C43.5801 20.9351 43.4064 22.7486 43.2344 23.6435Z" fill="white"/>
<path d="M43.7148 19.2339C43.8474 19.2969 43.9952 19.3554 44.1323 19.3613C44.2282 17.7677 44.2892 16.2471 44.2739 15.5294C44.1521 15.519 44.0409 15.5104 43.9389 15.5C43.9389 15.9454 43.8474 17.5333 43.7148 19.2355V19.2339Z" fill="#FEFFFF"/>
<path d="M43.7477 23.6429C44.1284 23.6429 44.3784 23.555 44.5459 23.4188C44.7333 22.2499 44.8202 20.8627 44.8659 19.4843C44.6723 19.4447 44.4331 19.3774 44.133 19.3672C44.037 20.9609 43.8938 22.6279 43.7461 23.6444L43.7477 23.6429Z" fill="white"/>
<path d="M44.1328 19.3672C44.4284 19.3774 44.6721 19.4448 44.8655 19.4844C44.8914 18.7944 44.9067 18.106 44.9159 17.4511C44.7133 17.3002 44.4832 17.1436 44.2456 17.1289C44.2258 17.794 44.1846 18.5703 44.1344 19.3672H44.1328Z" fill="#FBFBFD"/>
<path d="M44.25 17.1211C44.4893 17.1356 44.7132 17.2924 44.9203 17.4433C44.9356 16.7827 44.9462 16.1572 44.9615 15.5903C44.733 15.5654 44.4938 15.5464 44.2806 15.5273C44.2851 15.8935 44.2759 16.4516 44.25 17.1211Z" fill="#F8FAFC"/>
<path d="M44.5469 23.419C44.7099 23.2769 44.7905 23.0821 44.8272 22.8668C45.0511 21.5513 45.2035 20.5303 45.3208 19.4492C45.2141 19.5416 45.0664 19.5269 44.8729 19.4888C44.8164 20.8628 44.7313 22.25 44.5469 23.419Z" fill="white"/>
<path d="M44.8672 19.4825C44.9631 19.5015 45.05 19.5161 45.1261 19.5161C45.1611 18.9096 45.187 18.2945 45.2129 17.6543C45.1216 17.6001 45.0255 17.5269 44.9235 17.4492C44.9082 18.104 44.8931 18.7881 44.8672 19.4825Z" fill="#EEF1F7"/>
<path d="M44.918 17.4467C45.02 17.5244 45.1159 17.5976 45.2074 17.6518C45.2332 17.0117 45.2576 16.3423 45.2882 15.6332C45.1815 15.6187 45.0702 15.6083 44.9529 15.5938C44.9423 16.165 44.9331 16.792 44.918 17.4467Z" fill="#E3E8F2"/>
<path d="M45.125 19.5117C45.2011 19.5074 45.2621 19.4868 45.3184 19.4429C45.3748 18.9009 45.4251 18.3471 45.4709 17.732C45.39 17.7363 45.3078 17.7027 45.2164 17.6484C45.1858 18.2886 45.1599 18.9053 45.125 19.5102V19.5117Z" fill="#E2E8F2"/>
<path d="M45.2109 17.6514C45.3024 17.7057 45.3892 17.7393 45.4654 17.7349C45.5111 17.1196 45.5462 16.4488 45.5874 15.6768C45.4959 15.6622 45.3938 15.6475 45.2917 15.6328C45.2613 16.3419 45.2354 17.0113 45.2109 17.6514Z" fill="#D2DBEB"/>
<path d="M39.2194 15.0166C39.8501 15.0796 41.0552 15.226 41.5884 15.2613C41.5884 15.0268 41.5884 14.8306 41.5839 14.6606C41.0293 14.6856 39.8852 14.7383 39.2148 14.5391C39.2194 14.6856 39.2194 14.8276 39.2194 15.0181V15.0166Z" fill="white"/>
<path d="M39.2107 14.541C39.8811 14.7417 41.0206 14.6875 41.5797 14.6626C41.5752 14.4912 41.5645 14.3447 41.5493 14.2085C40.9749 14.2964 39.8918 14.3799 39.1758 14.043C39.2017 14.2437 39.2107 14.3945 39.2107 14.541Z" fill="white"/>
<path d="M39.1804 14.0435C39.1392 13.6421 39.089 13.5395 39.0234 13.1836C39.4195 13.5059 39.8629 13.6084 40.2788 13.6187C40.3549 13.9365 40.3855 13.9614 40.4204 14.2881C39.9833 14.2734 39.5353 14.2104 39.1804 14.0435Z" fill="white"/>
<path d="M40.4157 14.2832C40.8483 14.2935 41.2642 14.2495 41.5492 14.2056C41.5339 14.084 41.5186 13.9653 41.4927 13.8438C41.1972 13.8979 40.7859 13.9609 40.3594 13.9419C40.3853 14.0342 40.4004 14.1221 40.4157 14.2847V14.2832Z" fill="#F4F6FA"/>
<path d="M40.3666 13.9439C40.7931 13.9585 41.206 13.8999 41.4999 13.8457C41.474 13.7285 41.4436 13.6011 41.404 13.4648C41.0993 13.5337 40.7017 13.6216 40.2812 13.6113C40.3163 13.7725 40.3422 13.8603 40.3681 13.9439H40.3666Z" fill="#EEF1F7"/>
<path d="M41.5926 15.2609C41.6079 15.2609 41.7192 15.3151 41.8973 15.3386C41.9081 15.1438 41.9171 14.9518 41.9232 14.7673C41.7451 14.7526 41.6125 14.6794 41.582 14.6838C41.5866 14.8493 41.5926 15.0353 41.5926 15.2609Z" fill="white"/>
<path d="M41.579 14.6821C41.6094 14.6777 41.742 14.7554 41.9202 14.7656C41.931 14.5854 41.9355 14.4082 41.9355 14.2383C41.7634 14.2573 41.6202 14.228 41.5547 14.2427C41.5698 14.3789 41.5806 14.521 41.5806 14.6821H41.579Z" fill="#FAFBFD"/>
<path d="M41.5565 14.2495C41.622 14.2349 41.7652 14.2642 41.9373 14.2451C41.9373 14.0796 41.9327 13.917 41.922 13.7617C41.7544 13.8101 41.6022 13.8452 41.5 13.8687C41.5259 13.9961 41.5457 14.1177 41.5565 14.2495Z" fill="#EEF1F7"/>
<path d="M41.4983 13.8662C41.6005 13.8413 41.7527 13.8076 41.9203 13.7593C41.9097 13.6084 41.8853 13.4604 41.8549 13.3242C41.6919 13.3872 41.5197 13.4414 41.4023 13.4663C41.4435 13.6128 41.4739 13.7402 41.4983 13.8677V13.8662Z" fill="#E2E8F2"/>
<path d="M41.8945 15.3403C41.9251 15.3447 41.9601 15.3505 41.9967 15.355C42.0073 15.1645 42.0226 14.9741 42.0377 14.7881C42.0028 14.7881 41.9616 14.7734 41.9267 14.7734C41.9159 14.9536 41.9069 15.1455 41.8961 15.3403H41.8945Z" fill="white"/>
<path d="M41.9219 14.7725C41.957 14.7725 41.9982 14.7871 42.0331 14.7871C42.0484 14.5967 42.059 14.4106 42.0637 14.2305C42.0225 14.2407 41.9768 14.2407 41.9372 14.2451C41.9372 14.4106 41.9326 14.5879 41.9219 14.7725Z" fill="#F9FAFC"/>
<path d="M41.9409 14.2441C41.9821 14.2339 42.0278 14.2397 42.0674 14.2295C42.072 14.0493 42.072 13.8779 42.0674 13.7109C42.0217 13.7256 41.976 13.7446 41.9258 13.7593C41.9364 13.916 41.9409 14.0728 41.9409 14.2427V14.2441Z" fill="#EDF0F7"/>
<path d="M41.9224 13.7598C41.9728 13.7451 42.0185 13.7261 42.0642 13.7114C42.0534 13.5503 42.0383 13.3979 42.0077 13.2617C41.9575 13.2808 41.9057 13.3013 41.8555 13.3203C41.8904 13.4624 41.9118 13.6089 41.921 13.7598H41.9224Z" fill="#E0E7F1"/>
<path d="M41.9936 15.3521C42.0089 15.3521 42.0287 15.3564 42.044 15.3564C42.0591 15.1704 42.0744 14.98 42.0897 14.7895C42.0699 14.7895 42.0546 14.7852 42.0332 14.7852C42.0226 14.9712 42.0073 15.1616 41.9922 15.3521H41.9936Z" fill="white"/>
<path d="M42.0352 14.7856C42.055 14.7856 42.0703 14.79 42.0915 14.79C42.1068 14.5996 42.122 14.4033 42.1266 14.2188C42.1068 14.2231 42.0854 14.2231 42.0656 14.229C42.0611 14.4092 42.0504 14.5952 42.0352 14.7856Z" fill="#F9FAFC"/>
<path d="M42.0703 14.227C42.0901 14.2227 42.1113 14.2227 42.1312 14.2168C42.1419 14.0308 42.1419 13.8506 42.1358 13.6836C42.1099 13.6939 42.0901 13.6982 42.0703 13.7085C42.0748 13.8696 42.0748 14.0454 42.0703 14.227Z" fill="#EDF0F7"/>
<path d="M42.0641 13.7095C42.09 13.6992 42.1098 13.6948 42.1296 13.6846C42.1251 13.519 42.1098 13.3623 42.0794 13.2305C42.0535 13.2407 42.0292 13.2495 42.0078 13.2598C42.0382 13.396 42.058 13.5483 42.0641 13.7095Z" fill="#DFE5F1"/>
<path d="M42.0508 15.3559C42.1269 15.3661 42.203 15.375 42.2899 15.3808C42.3052 15.2094 42.3204 15.019 42.3402 14.814C42.2595 14.814 42.1771 14.7891 42.0965 14.7891C42.0767 14.9795 42.0614 15.1699 42.0508 15.3559Z" fill="white"/>
<path d="M42.0914 14.792C42.1675 14.792 42.2544 14.8169 42.3351 14.8169C42.3549 14.6118 42.3702 14.3965 42.3853 14.1914C42.2986 14.2061 42.2178 14.2061 42.131 14.2207C42.1203 14.4067 42.1051 14.6016 42.0898 14.792H42.0914Z" fill="#F9FAFC"/>
<path d="M42.1289 14.2197C42.2158 14.2051 42.2966 14.2051 42.3833 14.1904C42.3941 13.981 42.4032 13.7744 42.3986 13.5898C42.3117 13.6191 42.2264 13.6528 42.1336 13.688C42.1381 13.8535 42.1381 14.0352 42.1289 14.2212V14.2197Z" fill="#EDF0F7"/>
<path d="M42.1363 13.6865C42.2277 13.6528 42.3145 13.6235 42.4014 13.5884C42.3968 13.4023 42.3861 13.2368 42.3557 13.1094C42.2688 13.1489 42.1834 13.187 42.0859 13.231C42.1165 13.3628 42.1316 13.5195 42.1363 13.6851V13.6865Z" fill="#DFE5F1"/>
<path d="M42.2812 15.3808C42.5859 15.4102 42.9272 15.4292 43.1968 15.4496C43.2074 15.3223 43.2319 15.1025 43.2531 14.8389C42.9942 14.8242 42.6636 14.8096 42.333 14.8198C42.3178 15.0205 42.2979 15.2153 42.2828 15.3823L42.2812 15.3808Z" fill="white"/>
<path d="M42.332 14.814C42.6626 14.8037 42.9932 14.8242 43.2523 14.833C43.2782 14.5635 43.3025 14.2515 43.3239 13.9336C43.0846 14.0068 42.7799 14.0845 42.3838 14.1826C42.3687 14.3979 42.3534 14.6133 42.3336 14.8125L42.332 14.814Z" fill="#F9FAFC"/>
<path d="M42.3844 14.1914C42.7805 14.0991 43.0867 14.02 43.3244 13.9424C43.3442 13.6289 43.3594 13.3125 43.3594 13.043C43.1416 13.2231 42.8567 13.415 42.3981 13.5908C42.4026 13.7769 42.3936 13.9819 42.3828 14.1914H42.3844Z" fill="#EDF0F7"/>
<path d="M42.4012 13.5869C42.8583 13.4067 43.1431 13.2207 43.3625 13.0391C43.3625 12.7695 43.3518 12.5454 43.3167 12.418C43.1141 12.6479 42.8445 12.8926 42.3555 13.1079C42.3859 13.2397 42.3967 13.4067 42.4012 13.5869Z" fill="#DFE5F1"/>
<path d="M43.1969 15.4506C43.4666 15.4653 43.6691 15.4755 43.6997 15.48C43.7103 15.3965 43.7346 15.1577 43.7652 14.8398C43.7042 14.8647 43.5107 14.8545 43.2518 14.8398C43.232 15.1035 43.2061 15.3233 43.1953 15.4506H43.1969Z" fill="white"/>
<path d="M43.2539 14.8408C43.5129 14.8555 43.7063 14.8657 43.7673 14.8408C43.7977 14.5186 43.8389 14.1172 43.8693 13.707C43.7367 13.7949 43.5647 13.8682 43.3255 13.9414C43.3057 14.2593 43.2798 14.5713 43.2539 14.8408Z" fill="#F9FAFC"/>
<path d="M43.3242 13.9385C43.5634 13.8652 43.7354 13.792 43.868 13.7041C43.8985 13.2939 43.9244 12.8823 43.9336 12.5352C43.7309 12.6816 43.5771 12.8574 43.3546 13.0391C43.3592 13.3086 43.344 13.625 43.3242 13.9385Z" fill="#EDF0F7"/>
<path d="M43.3598 13.0415C43.5777 12.8613 43.736 12.6899 43.9387 12.5376C43.9494 12.1948 43.9387 11.9224 43.8975 11.7891C43.663 11.9648 43.5212 12.1846 43.3125 12.4145C43.3476 12.5464 43.3582 12.772 43.3582 13.04L43.3598 13.0415Z" fill="#DEE5F1"/>
<path d="M43.7031 15.4794C43.7899 15.4898 43.9119 15.5043 44.0596 15.5132C44.0702 15.377 44.1008 15.0884 44.1402 14.7266C43.9925 14.7895 43.8601 14.8335 43.7747 14.8394C43.7396 15.1572 43.7137 15.396 43.7031 15.4794Z" fill="white"/>
<path d="M43.7656 14.8394C43.857 14.835 43.9834 14.791 44.1311 14.7266C44.1662 14.3647 44.2119 13.9253 44.2484 13.4844C44.1007 13.5869 43.9681 13.6646 43.8676 13.71C43.8372 14.1157 43.8021 14.5171 43.7656 14.8394Z" fill="#F8FAFC"/>
<path d="M44.0586 15.5161C44.2063 15.5308 44.3785 15.5454 44.5567 15.5601C44.572 15.2964 44.6024 14.9302 44.633 14.5039C44.4608 14.5815 44.2871 14.665 44.1392 14.728C44.1043 15.0898 44.0676 15.3784 44.0586 15.5146V15.5161Z" fill="#F8FAFC"/>
<path d="M44.1367 14.7285C44.2846 14.6655 44.4567 14.5864 44.6305 14.5044C44.6609 14.084 44.6913 13.6094 44.7172 13.1406C44.5603 13.2622 44.4019 13.3852 44.254 13.4834C44.2191 13.9287 44.1734 14.3682 44.1367 14.73V14.7285Z" fill="#EEF1F7"/>
<path d="M43.875 13.7041C43.977 13.6645 44.1141 13.5825 44.2558 13.48C44.2909 13.0405 44.3213 12.5952 44.3321 12.2188C44.195 12.3506 44.0578 12.459 43.9405 12.5366C43.9299 12.8838 43.9054 13.2998 43.875 13.7056V13.7041Z" fill="#E7ECF4"/>
<path d="M43.9396 12.5376C44.0569 12.46 44.1941 12.3472 44.3312 12.2197C44.3418 11.8433 44.3312 11.54 44.2855 11.3789C44.1529 11.5547 44.0204 11.7012 43.8984 11.7949C43.9396 11.9224 43.9441 12.1963 43.9396 12.5376Z" fill="#D7DFEE"/>
<path d="M44.2539 13.4805C44.4018 13.3779 44.5587 13.2607 44.7171 13.1377C44.743 12.6689 44.7522 12.1987 44.7475 11.793C44.6105 11.9438 44.4673 12.0918 44.3255 12.2178C44.321 12.5942 44.2906 13.0395 44.2539 13.479V13.4805Z" fill="#DCE3EF"/>
<path d="M44.3326 12.2192C44.4697 12.0874 44.6175 11.9409 44.7546 11.7944C44.7499 11.3843 44.724 11.0371 44.6738 10.7969C44.5519 11.0019 44.424 11.2026 44.293 11.3784C44.334 11.5395 44.3432 11.8472 44.334 12.2192H44.3326Z" fill="#CAD4E7"/>
<path d="M44.5625 15.5591C44.7407 15.5738 44.928 15.5928 45.1063 15.6132C45.1261 15.2265 45.1475 14.7725 45.1626 14.2891C44.9951 14.3477 44.8168 14.4253 44.6386 14.5044C44.6035 14.9292 44.5776 15.2969 44.5625 15.5606V15.5591Z" fill="#E6EAF4"/>
<path d="M44.6328 14.5039C44.8049 14.4263 44.9893 14.3472 45.1568 14.2886C45.1721 13.8052 45.1766 13.2969 45.1766 12.793C45.035 12.8955 44.8765 13.0171 44.7195 13.1401C44.6937 13.6089 44.6632 14.0835 44.6328 14.5039Z" fill="#D7DFEE"/>
<path d="M45.1016 15.6137C45.2797 15.6327 45.4473 15.6531 45.5891 15.6767C45.6087 15.2313 45.615 14.7289 45.6042 14.1957C45.4778 14.1913 45.3193 14.2293 45.1518 14.2879C45.141 14.7713 45.1214 15.221 45.1016 15.6122V15.6137Z" fill="#C8D3E7"/>
<path d="M45.1562 14.2881C45.3238 14.2295 45.4823 14.1899 45.6088 14.1958C45.598 13.6626 45.5737 13.1103 45.5372 12.5625C45.4458 12.6064 45.3193 12.6899 45.1761 12.7925C45.1761 13.2964 45.1715 13.8047 45.1562 14.2881Z" fill="#B5C5DE"/>
<path d="M44.7188 13.1396C44.8757 13.0181 45.0342 12.895 45.1758 12.7925C45.1713 12.2886 45.1605 11.8008 45.1301 11.3555C45.0189 11.4917 44.891 11.644 44.7539 11.7949C44.7539 12.2051 44.7386 12.6694 44.7188 13.1396Z" fill="#C2CFE4"/>
<path d="M44.7486 11.793C44.8857 11.6421 45.0138 11.4897 45.125 11.3535C45.0945 10.9082 45.0488 10.5127 44.9879 10.1992C44.8965 10.3852 44.7853 10.5903 44.668 10.7954C44.7243 11.0356 44.7441 11.3813 44.7486 11.793Z" fill="#B1C1DC"/>
<path d="M45.1746 12.79C45.3163 12.6875 45.4397 12.604 45.5356 12.5601C45.5007 12.0181 45.4489 11.4849 45.394 11C45.333 11.0923 45.2417 11.2153 45.1289 11.3516C45.1548 11.7969 45.1701 12.2905 45.1746 12.7886V12.79Z" fill="#A0B4D4"/>
<path d="M45.1299 11.355C45.2412 11.2188 45.3326 11.0957 45.395 11.0034C45.3387 10.52 45.2731 10.0894 45.2015 9.74219C45.1558 9.85499 45.0842 10.0161 44.9883 10.2021C45.0538 10.5156 45.0995 10.9111 45.1299 11.3565V11.355Z" fill="#8FA7CC"/>
<path d="M39.0185 13.1816C39.4146 13.5039 39.8579 13.6064 40.2738 13.6167C40.1718 13.1274 40.0757 12.7466 39.9691 12.3892C39.4907 12.1401 38.9773 11.7827 38.5508 11.4062C38.7138 11.8311 38.8661 12.3745 39.0185 13.1802V13.1816Z" fill="white"/>
<path d="M38.5525 11.4009C38.979 11.7817 39.4924 12.1392 39.9708 12.3838C39.8641 12.022 39.7468 11.6851 39.6144 11.2837C39.0811 11.0742 38.5007 10.7358 38.0391 10.3008C38.2264 10.6582 38.3955 10.9702 38.5525 11.4009Z" fill="white"/>
<path d="M40.2795 13.6182C40.7015 13.6284 41.0976 13.5347 41.4022 13.4717C41.3565 13.3062 41.2759 13.0469 41.189 12.7187C40.8935 12.7773 40.447 12.6353 39.9688 12.3906C40.08 12.748 40.1775 13.1289 40.2795 13.6182Z" fill="#EBEEF6"/>
<path d="M39.9691 12.3853C40.4474 12.6343 40.8937 12.772 41.1894 12.7134C41.1025 12.3853 41.0065 11.9898 40.9243 11.54C40.6395 11.5884 40.152 11.4961 39.6172 11.2852C39.7435 11.6865 39.8609 12.0278 39.9676 12.3853H39.9691Z" fill="#F1F4F9"/>
<path d="M41.404 13.4683C41.561 13.4346 41.8062 13.3511 42.0134 13.2632C41.9525 13.1021 41.8717 12.853 41.7742 12.5352C41.5565 12.6187 41.3324 12.6919 41.1953 12.7153C41.2761 13.0435 41.3523 13.3013 41.404 13.4683Z" fill="#DEE5F1"/>
<path d="M41.1916 12.7148C41.3287 12.6899 41.5573 12.6167 41.7705 12.5347C41.6791 12.2168 41.5771 11.8257 41.481 11.3906C41.2526 11.4741 41.0439 11.5269 40.9219 11.5474C41.0088 11.9927 41.1047 12.3882 41.1916 12.7163V12.7148Z" fill="#E7ECF4"/>
<path d="M42.0087 13.2612C42.0544 13.2422 42.1046 13.2217 42.1458 13.2026C42.0895 13.0415 42.0087 12.7925 41.9173 12.4688C41.867 12.4878 41.8213 12.5127 41.7695 12.5317C41.8655 12.8496 41.9524 13.0986 42.0087 13.2598V13.2612Z" fill="#DBE2EF"/>
<path d="M41.77 12.5313C41.8202 12.5122 41.872 12.4917 41.9177 12.4683C41.8263 12.1504 41.7304 11.7593 41.6374 11.3242C41.5872 11.3433 41.5309 11.3682 41.4805 11.3872C41.5766 11.8223 41.6786 12.2134 41.77 12.5313Z" fill="#E3E9F3"/>
<path d="M42.151 13.2031C42.2226 13.1738 42.2882 13.1401 42.3537 13.1108C42.2928 12.9497 42.212 12.7007 42.1206 12.3828C42.0551 12.4121 41.988 12.4414 41.918 12.4707C42.0094 12.793 42.0902 13.042 42.1526 13.2046L42.151 13.2031Z" fill="#DAE1EE"/>
<path d="M41.9202 12.4678C41.9857 12.4385 42.0573 12.4092 42.1228 12.3799C42.0314 12.062 41.9355 11.6753 41.8425 11.2461C41.7771 11.271 41.7101 11.3003 41.6445 11.3237C41.7314 11.7632 41.8274 12.1499 41.9188 12.4678H41.9202Z" fill="#E2E8F2"/>
<path d="M42.3542 13.1074C43.0092 12.8144 43.2697 12.4775 43.5135 12.1831C43.4632 12.0659 43.3962 11.8696 43.3307 11.6016C43.026 11.8857 42.6694 12.1494 42.1211 12.3794C42.2125 12.7016 42.2932 12.9463 42.3557 13.1074H42.3542Z" fill="#D9E1EE"/>
<path d="M42.1202 12.3872C42.6687 12.1528 43.0251 11.8892 43.3298 11.6094C43.2582 11.3457 43.1821 11.0132 43.1013 10.6367C42.7356 10.9062 42.2771 11.082 41.8398 11.2519C41.9313 11.6826 42.0333 12.0679 42.1202 12.3857V12.3872Z" fill="#E1E7F2"/>
<path d="M43.5129 12.1865C43.6302 12.0444 43.7474 11.9082 43.8998 11.7954C43.8237 11.5405 43.7368 10.959 43.6043 10.1914C43.4413 10.2896 43.2995 10.4844 43.1016 10.6309C43.2691 11.3882 43.4062 11.9551 43.5129 12.1851V12.1865Z" fill="#D5DDEC"/>
<path d="M43.8998 11.7925C43.8649 11.665 43.8237 11.46 43.7734 11.186C43.8907 11.1084 44.0171 10.9561 44.1452 10.7656C44.2015 11.0205 44.2472 11.2256 44.2868 11.3765C44.1542 11.5522 44.0218 11.6987 43.8998 11.7925Z" fill="#CED8E9"/>
<path d="M44.2862 11.3794C44.245 11.2285 44.1948 11.022 44.1445 10.7685C44.2709 10.5825 44.3943 10.3584 44.51 10.1328C44.5665 10.3672 44.6167 10.5928 44.667 10.7978C44.5451 11.0029 44.4172 11.2036 44.2862 11.3794Z" fill="#C0CDE3"/>
<path d="M43.7732 11.1812C43.7275 10.9072 43.671 10.5703 43.6055 10.1836C43.7167 10.1147 43.8448 9.99756 43.9711 9.85547C44.0321 10.2026 44.0884 10.5059 44.1434 10.7593C44.0168 10.9497 43.8889 11.1021 43.7716 11.1797L43.7732 11.1812Z" fill="#C9D4E7"/>
<path d="M44.1449 10.7695C44.0884 10.5146 44.0337 10.2129 43.9727 9.86573C44.0992 9.72363 44.2316 9.55224 44.3536 9.38672C44.4038 9.65039 44.4556 9.89942 44.5104 10.1396C44.3932 10.3594 44.2667 10.585 44.1449 10.7695Z" fill="#BAC8E0"/>
<path d="M44.6687 10.7993C44.6229 10.5942 44.5666 10.3687 44.5117 10.1343C44.629 9.9087 44.7403 9.68457 44.8317 9.48828C44.8819 9.70362 44.9337 9.938 44.9886 10.2017C44.8972 10.3877 44.7905 10.5928 44.6687 10.7979V10.7993Z" fill="#A8BAD8"/>
<path d="M44.989 10.1997C44.9327 9.93604 44.8823 9.70167 44.832 9.48633C44.9234 9.2959 45.0043 9.13478 45.0606 9.04688C45.1018 9.23292 45.1475 9.45703 45.2022 9.7456C45.1565 9.8584 45.0804 10.0195 44.989 10.1997Z" fill="#88A3C9"/>
<path d="M44.5085 10.1309C44.4522 9.89649 44.402 9.64159 44.3516 9.37792C44.4781 9.20653 44.5954 9.04101 44.6974 8.89453C44.7325 9.0747 44.7782 9.27099 44.83 9.48633C44.7386 9.68115 44.6274 9.90673 44.5101 10.1323L44.5085 10.1309Z" fill="#A3B6D5"/>
<path d="M44.8318 9.48681C44.7816 9.27149 44.7359 9.07666 44.6992 8.89502C44.8014 8.75293 44.8928 8.63135 44.9537 8.5625C44.9888 8.70459 45.0192 8.85546 45.0604 9.04151C45.004 9.13965 44.9278 9.29639 44.8318 9.48681Z" fill="#86A1C7"/>
<path d="M38.0389 10.3042C37.658 9.57032 36.814 8.05127 36.2031 7.15625C36.7318 7.71289 37.7541 8.41308 38.7046 8.96973C39.0094 9.54687 39.3353 10.4609 39.6142 11.2871C39.081 11.0776 38.5005 10.7451 38.0389 10.3042Z" fill="white"/>
<path d="M39.6144 11.2866C40.1476 11.4961 40.6412 11.5898 40.9214 11.5415C40.8347 11.0815 40.8041 10.7344 40.7996 10.4766C40.5253 10.5102 39.8748 10.3403 39.168 10.0312C39.3249 10.4414 39.4787 10.8765 39.6158 11.2881L39.6144 11.2866Z" fill="#FDFDFE"/>
<path d="M39.1741 10.0337C39.8809 10.3413 40.5315 10.5127 40.8057 10.479C40.801 10.2197 40.8163 10.0439 40.8163 9.9121C40.5513 9.93115 39.6677 9.52539 38.7109 8.96875C38.8587 9.25732 39.0156 9.63378 39.1741 10.0337Z" fill="white"/>
<path d="M40.9251 11.5459C41.0515 11.5269 41.2816 11.4683 41.5253 11.3745C41.4597 10.9248 41.4597 10.582 41.475 10.3242C41.2161 10.4121 40.9463 10.4663 40.8047 10.481C40.8094 10.7402 40.8353 11.0815 40.9267 11.5459H40.9251Z" fill="#F7F8FC"/>
<path d="M40.7993 10.4814C40.9409 10.4668 41.2106 10.4126 41.4696 10.3247C41.4847 10.0654 41.5198 9.88525 41.5412 9.75781C41.267 9.8413 40.9623 9.89991 40.8083 9.91455C40.8083 10.042 40.7932 10.2222 40.7977 10.4814H40.7993Z" fill="#FEFFFF"/>
<path d="M41.5254 11.3716C41.5666 11.3569 41.6017 11.3423 41.6427 11.3276C41.5819 10.8779 41.5819 10.541 41.6015 10.2773C41.5605 10.292 41.5148 10.3066 41.4752 10.3213C41.4554 10.5806 41.4599 10.9219 41.5254 11.3716Z" fill="#F1F3F9"/>
<path d="M41.4703 10.3218C41.5115 10.3071 41.5572 10.2925 41.5968 10.2778C41.6166 10.0186 41.6577 9.83838 41.6775 9.71094C41.6318 9.72559 41.5861 9.74023 41.5404 9.75489C41.5252 9.88233 41.4901 10.0625 41.4688 10.3218H41.4703Z" fill="#FBFCFD"/>
<path d="M41.637 11.3267C41.7436 11.2827 41.8548 11.2388 41.9676 11.1992C41.9172 10.7598 41.9219 10.4214 41.9523 10.168C41.8564 10.1929 41.7345 10.231 41.6019 10.2808C41.5821 10.54 41.5821 10.8813 41.637 11.3267Z" fill="#F0F3F9"/>
<path d="M41.6016 10.2788C41.734 10.2305 41.856 10.1909 41.9519 10.166C41.9778 9.91115 42.0281 9.73097 42.054 9.60938C41.9778 9.61964 41.8407 9.66359 41.6822 9.71192C41.6624 9.83936 41.6214 10.0195 41.6016 10.2788Z" fill="#FAFBFD"/>
<path d="M41.9693 11.1958C42.1674 11.1182 42.3714 11.0347 42.5635 10.9409C42.4979 10.5015 42.507 10.1689 42.5376 9.91406C42.3699 10.0166 42.1764 10.1045 41.9526 10.1587C41.922 10.418 41.9175 10.7549 41.9677 11.1943L41.9693 11.1958Z" fill="#EDF0F7"/>
<path d="M41.9531 10.167C42.177 10.1128 42.3706 10.0249 42.5381 9.92236C42.5685 9.66748 42.6143 9.4873 42.6249 9.35547C42.4832 9.47706 42.3096 9.5796 42.0551 9.61035C42.0247 9.73194 41.979 9.90918 41.9531 10.167Z" fill="#F7F8FC"/>
<path d="M42.5641 10.9443C42.7576 10.852 42.9404 10.7495 43.1034 10.6265C43.0226 10.1914 43.0075 9.83983 43.0075 9.57031C42.8551 9.69189 42.7073 9.81493 42.5351 9.91747C42.5092 10.1767 42.5002 10.5093 42.5657 10.9443H42.5641Z" fill="#E3E9F3"/>
<path d="M42.5391 9.91894C42.7066 9.8164 42.859 9.69483 43.0113 9.57178C43.0113 9.29785 43.0311 9.10303 43.0158 8.96094C42.8788 9.08251 42.766 9.23047 42.6197 9.35205C42.6152 9.48828 42.5695 9.66553 42.5391 9.91894Z" fill="#EEF1F7"/>
<path d="M43.1015 10.6318C43.2949 10.4853 43.4427 10.2891 43.6043 10.1924C43.5388 9.79688 43.5327 9.479 43.5478 9.23438C43.3391 9.29297 43.1761 9.43506 43.0085 9.57129C43.004 9.84521 43.0193 10.1924 43.1 10.6318H43.1015Z" fill="#D8DFEE"/>
<path d="M43.0039 9.57081C43.176 9.43458 43.3345 9.28662 43.5432 9.2339C43.5583 8.98926 43.5844 8.81787 43.5781 8.71094C43.3239 8.72999 43.1562 8.83253 43.0084 8.96583C43.0237 9.10206 43.0084 9.30275 43.0039 9.57227V9.57081Z" fill="#E1E7F2"/>
<path d="M43.6063 10.1909C43.5407 9.79541 43.5347 9.47753 43.55 9.23291C43.6612 9.19336 43.7785 9.12011 43.9003 9.02344C43.9003 9.23291 43.9109 9.50243 43.9719 9.86426C43.8454 10.0063 43.7175 10.1235 43.6063 10.1924V10.1909Z" fill="#C5D1E5"/>
<path d="M43.97 9.86426C43.9092 9.50684 43.8984 9.23438 43.8984 9.02344C44.0204 8.92529 44.1376 8.80811 44.2549 8.69531C44.2747 8.89013 44.3006 9.11134 44.351 9.38525C44.229 9.55078 44.0966 9.71777 43.97 9.86426Z" fill="#B5C5DE"/>
<path d="M43.5508 9.23438C43.5661 8.98974 43.592 8.81835 43.5859 8.71141C43.6971 8.70117 43.8037 8.63379 43.9012 8.53125C43.9164 8.65869 43.9012 8.80956 43.9012 9.0249C43.7793 9.12305 43.662 9.19629 43.5508 9.23438Z" fill="#CDD8E9"/>
<path d="M43.8984 9.02392C43.8984 8.81445 43.9137 8.65771 43.8984 8.53027C43.9944 8.42773 44.0919 8.30029 44.1788 8.16406C44.2139 8.32959 44.2351 8.49658 44.2549 8.6914C44.1376 8.8086 44.0157 8.92578 43.8984 9.02392Z" fill="#BDCBE2"/>
<path d="M44.35 9.37793C44.2996 9.10401 44.2737 8.88428 44.2539 8.68799C44.3712 8.57081 44.4824 8.45361 44.5799 8.35547C44.6211 8.53565 44.6562 8.70704 44.6973 8.89746C44.5952 9.03956 44.4795 9.21095 44.3514 9.37647L44.35 9.37793Z" fill="#A0B4D4"/>
<path d="M44.6993 8.90039C44.6583 8.71435 44.6232 8.53858 44.582 8.3584C44.6842 8.26025 44.7695 8.17822 44.8411 8.13281C44.8822 8.28368 44.9173 8.42138 44.9524 8.56787C44.8914 8.63672 44.8045 8.7539 44.6979 8.90039H44.6993Z" fill="#86A1C7"/>
<path d="M44.2558 8.68848C44.236 8.49366 44.2148 8.32666 44.1797 8.16114C44.2711 8.0293 44.3519 7.8916 44.4386 7.78906C44.4951 7.99414 44.5408 8.17579 44.5865 8.35596C44.4844 8.4541 44.3731 8.5713 44.2558 8.68848Z" fill="#A5B8D6"/>
<path d="M44.5813 8.35791C44.5403 8.17775 44.4946 7.9961 44.4336 7.79102C44.5144 7.68408 44.5966 7.60499 44.6774 7.58594C44.7429 7.80567 44.7947 7.98146 44.8404 8.1338C44.7688 8.17775 44.6835 8.26124 44.5813 8.35791Z" fill="#89A3C9"/>
<path d="M36.2028 7.16162C37.26 8.27636 40.2856 9.95801 40.808 9.91406C40.808 9.81591 40.7882 9.5669 40.7472 9.21533C40.0053 9.02051 37.2996 7.52343 36.2377 6.52734C36.1769 6.85547 36.1616 7.09863 36.2028 7.16309V7.16162Z" fill="white"/>
<path d="M36.2383 6.52538C37.3002 7.52294 39.9996 9.01855 40.7476 9.21337C40.5954 7.74268 40.184 4.47607 40.0865 2.95703C38.8814 2.95703 37.9962 3.41113 37.3718 4.09667C36.7776 4.76171 36.4166 5.63623 36.2383 6.52685V6.52538Z" fill="white"/>
<path d="M40.8081 9.91329C40.965 9.89864 41.265 9.84005 41.5408 9.75656C41.4798 8.80293 40.8797 4.88741 40.5034 2.967C40.3404 2.95674 40.2291 2.96261 40.0859 2.96261C40.2032 4.84493 40.8081 9.41085 40.8081 9.91329Z" fill="white"/>
<path d="M41.5399 9.7544C41.5703 9.74414 41.6009 9.73535 41.6268 9.7251C41.5505 8.73341 40.9457 4.88526 40.539 2.96484H40.5039C40.8803 4.88526 41.4805 8.80664 41.5415 9.7544H41.5399Z" fill="white"/>
<path d="M41.6329 9.72998C41.8112 9.67139 41.968 9.62305 42.0549 9.60839C42.0047 8.9873 41.8264 7.81396 41.5917 6.55859C41.505 6.55859 41.342 6.67139 41.2109 6.69482C41.4242 8.0249 41.5917 9.23194 41.6329 9.72998Z" fill="white"/>
<path d="M41.2102 6.69434C41.3428 6.66944 41.5056 6.55811 41.591 6.55811C41.3564 5.30127 41.0731 3.9624 40.7927 2.99414C40.7121 2.9795 40.6252 2.96924 40.543 2.96484C40.7455 3.92724 40.9954 5.37012 41.2086 6.69434H41.2102Z" fill="white"/>
<path d="M42.0504 9.60986C42.4372 9.56153 42.6399 9.35059 42.8333 9.14551C42.8074 8.7002 42.7572 8.2168 42.6811 7.71875C42.4678 8.00293 42.2438 8.29004 41.8828 8.3252C41.9695 8.85254 42.0245 9.29786 42.0504 9.61133V9.60986Z" fill="#FDFDFE"/>
<path d="M41.8878 8.32177C42.2488 8.28808 42.4667 7.99951 42.6861 7.71532C42.6099 7.21728 42.514 6.69873 42.3967 6.17578C42.1468 6.35595 41.8939 6.55224 41.5938 6.55663C41.705 7.18653 41.8117 7.79296 41.8894 8.32177H41.8878Z" fill="white"/>
<path d="M41.5906 6.55859C41.8907 6.5542 42.1452 6.35791 42.3935 6.17774C42.1544 5.13623 41.8191 4.08595 41.3972 3.16163C41.2037 3.08839 41.0056 3.02978 40.7969 2.99609C41.0711 3.96436 41.356 5.30323 41.5906 6.56006V6.55859Z" fill="white"/>
<path d="M42.8305 9.14501C42.9265 9.04247 43.024 8.93993 43.1413 8.86084C43.1154 8.32324 43.0758 7.81933 43.0148 7.33594C42.8929 7.43848 42.7862 7.58056 42.6797 7.72265C42.7558 8.2163 42.806 8.69971 42.8319 9.14501H42.8305Z" fill="#F1F4F9"/>
<path d="M42.6855 7.71728C42.7922 7.5752 42.8987 7.43897 43.0206 7.33056C42.9597 6.84717 42.8789 6.38722 42.7663 5.9375C42.6398 5.99609 42.5164 6.08839 42.3945 6.17774C42.5118 6.70069 42.6078 7.21924 42.6839 7.71728H42.6855Z" fill="#F8FAFC"/>
<path d="M43.146 8.86133C43.2634 8.78369 43.4005 8.7251 43.5833 8.71044C43.5574 8.12891 43.5117 7.62061 43.4417 7.15625C43.274 7.16065 43.1368 7.22949 43.0195 7.33643C43.0805 7.81542 43.1156 8.31933 43.146 8.86133Z" fill="#E6EBF4"/>
<path d="M43.0222 7.33148C43.1441 7.22894 43.2812 7.15569 43.4442 7.15129C43.3726 6.68694 43.2812 6.26653 43.1486 5.86077C43.016 5.84173 42.8896 5.87542 42.7617 5.93841C42.8728 6.38811 42.9597 6.85247 43.0207 7.33148H43.0222Z" fill="#EFF3F9"/>
<path d="M42.3909 6.17774C42.6407 5.99756 42.8784 5.82617 43.148 5.85986C42.8935 5.05274 42.5081 4.31445 41.9383 3.42969C41.7663 3.32715 41.5819 3.23925 41.3945 3.16016C41.8165 4.08887 42.1516 5.14062 42.3909 6.17627V6.17774Z" fill="#F9FAFC"/>
<path d="M43.5851 8.71191C43.5347 7.55322 43.4068 6.67285 43.1523 5.86719C43.2636 5.89648 43.355 5.90674 43.4372 5.91114C43.6916 6.65967 43.8288 7.46533 43.905 8.53174C43.7983 8.63428 43.6963 8.70312 43.5851 8.71191Z" fill="#D5DEED"/>
<path d="M43.9013 8.52685C43.8297 7.46191 43.6926 6.65038 43.4336 5.90625C43.5144 5.91064 43.5813 5.90625 43.6468 5.90625C43.9013 6.58155 44.0688 7.30371 44.1801 8.16504C44.0933 8.29248 43.9972 8.42431 43.8997 8.52685H43.9013Z" fill="#C5D1E5"/>
<path d="M43.151 5.86376C42.8966 5.05664 42.5113 4.31835 41.9414 3.43359C42.0526 3.49658 42.1654 3.57567 42.2766 3.65918C42.8099 4.47509 43.1814 5.15918 43.4359 5.90771C43.3552 5.90331 43.2638 5.89305 43.151 5.86376Z" fill="#E9EDF5"/>
<path d="M43.4314 5.90673C43.5122 5.91113 43.5792 5.90673 43.6447 5.90673C43.5183 5.56982 43.3706 5.24169 43.1968 4.91943C43.1207 4.87988 43.0445 4.84619 42.9531 4.8125C43.1511 5.17431 43.3035 5.53173 43.4314 5.9082V5.90673Z" fill="#DBE2EF"/>
<path d="M42.9583 4.81055C43.0452 4.8501 43.1258 4.87939 43.202 4.91748C43.0299 4.5952 42.8304 4.26708 42.6079 3.93456C42.5012 3.83642 42.39 3.74413 42.2773 3.65625C42.5424 4.06639 42.7648 4.44287 42.9583 4.81055Z" fill="#E1E7F2"/>
<path d="M44.1777 8.16113C44.0665 7.30127 43.8974 6.57764 43.6445 5.90234C43.7101 5.90234 43.771 5.90234 43.838 5.917C44.0879 6.50879 44.2798 7.13428 44.4322 7.78466C44.3514 7.89746 44.2692 8.0293 44.1777 8.16113Z" fill="#AEBFDB"/>
<path d="M44.4402 7.79003C44.521 7.6831 44.6032 7.604 44.684 7.58495C44.5971 7.30664 44.5057 7.03711 44.4037 6.77344C44.3229 6.77344 44.2468 6.79247 44.1797 6.83203C44.2758 7.14551 44.3625 7.46191 44.4388 7.79003H44.4402Z" fill="#90A8CC"/>
<path d="M44.1749 6.83202C44.2465 6.79833 44.3166 6.77343 44.399 6.77343C44.2968 6.50976 44.1855 6.25488 44.0682 6.01025C43.9815 5.9619 43.9114 5.93261 43.8398 5.91797C43.9662 6.21678 44.079 6.51855 44.1749 6.83202Z" fill="#9DB1D2"/>
<path d="M43.6527 5.90283C43.7853 5.90283 43.9026 5.90723 44.0749 6.00977C43.9529 5.76074 43.825 5.52051 43.6833 5.28614C43.505 5.0913 43.3633 4.99316 43.2109 4.91406C43.3786 5.24219 43.5264 5.56445 43.6527 5.90136V5.90283Z" fill="#C4D0E5"/>
<path d="M43.2017 4.91651C43.3541 4.99414 43.4973 5.09228 43.6741 5.28857C43.5324 5.0542 43.3784 4.82422 43.2109 4.59863C43.0281 4.35841 42.8193 4.12988 42.6016 3.93359C42.8301 4.26611 43.0281 4.59278 43.2017 4.91651Z" fill="#CFD8E9"/>
<path d="M35.2612 10.0278C33.9374 11.2803 32.7202 11.9175 32.0575 12.3071C31.7803 12.4917 31.6523 12.6147 31.6523 12.9443C31.6523 13.0264 31.6736 13.0674 31.7377 13.0674C31.8656 13.0674 32.0575 12.8828 32.443 12.8828C33.4256 12.8828 34.4508 13.9712 35.6467 13.9712C37.0986 13.9712 39.3213 12.2866 39.8757 11.897L39.9611 12.02C39.1279 12.9033 35.9667 15.3467 34.7494 15.3467C34.0441 15.3467 33.6602 15.162 33.6602 14.957C33.6602 14.6494 34.1721 14.2788 34.4508 14.0737C34.4295 14.0532 34.2589 13.9917 34.1948 13.9507C33.9816 14.0942 33.1696 14.6289 33.1696 15.1005C33.1696 15.6762 33.9604 15.8609 34.6855 15.8609C35.3268 15.8609 35.9453 15.5327 36.3094 15.3467C37.1641 14.8545 39.2999 13.3545 39.984 12.7788C40.6253 12.2646 40.8386 11.793 40.8386 11.2173C40.8386 10.457 39.408 10.2315 39.2786 8.38281C39.2146 7.17139 39.0867 6.80079 38.9374 6.80079C38.6174 6.80079 38.3387 7.56103 37.3774 7.56103C36.672 7.56103 36.8426 6.63672 36.672 6.63672C36.3947 6.71875 36.3947 8.95704 35.2628 10.0249" fill="url(#paint0_linear_4251_5498)"/>
<path d="M41.9689 7.417C41.5851 7.417 41.457 7.15038 41.457 6.8208C41.457 6.36962 41.6277 5.9375 41.9689 5.9375C42.2462 5.9375 42.4381 6.30663 42.4595 6.84131C42.4595 7.21044 42.2462 7.417 41.9689 7.417Z" fill="#0D4D84"/>
</g>
</g>
<defs>
<linearGradient id="paint0_linear_4251_5498" x1="33.9696" y1="9.24076" x2="36.9089" y2="11.6129" gradientUnits="userSpaceOnUse">
<stop stop-color="#FBCC93"/>
<stop offset="1" stop-color="#F68B1B"/>
</linearGradient>
<clipPath id="clip0_4251_5498">
<rect width="78" height="24" fill="white"/>
</clipPath>
</defs>
</svg>
