<svg width="52" height="24" viewBox="0 0 52 24" fill="none" xmlns="http://www.w3.org/2000/svg">
<g clip-path="url(#clip0_4251_5491)">
<mask id="mask0_4251_5491" style="mask-type:luminance" maskUnits="userSpaceOnUse" x="0" y="0" width="52" height="24">
<path d="M52 0H0V23.9992H52V0Z" fill="white"/>
</mask>
<g mask="url(#mask0_4251_5491)">
<path d="M22.7358 0C22.0301 0 21.3942 0.435113 21.1246 1.10138C20.855 1.76764 21.0048 2.53589 21.5042 3.04579C22.0035 3.55569 22.7558 3.70866 23.4083 3.43331C24.0608 3.15457 24.4837 2.50189 24.4837 1.78125C24.4837 1.54669 24.4404 1.31554 24.3504 1.09798C24.2639 0.880423 24.1341 0.686662 23.9743 0.520096C23.8112 0.35353 23.6181 0.224355 23.405 0.132573C23.1953 0.0441911 22.9656 0 22.7358 0Z" fill="#009ACE"/>
<path fill-rule="evenodd" clip-rule="evenodd" d="M41.6499 5.87465H44.3331L44.3732 7.01682C44.5595 6.78227 44.7693 6.57151 44.9989 6.38794C45.232 6.20439 45.4817 6.04462 45.748 5.91544C46.0144 5.78966 46.2906 5.69108 46.5769 5.6265C46.8666 5.56191 47.1595 5.52792 47.4525 5.53131C50.3954 5.53131 52 7.39074 52 10.6303V18.1734H49.2202V10.7322C49.2202 9.06661 48.2215 8.108 46.8233 8.108C45.4218 8.108 44.4297 9.06661 44.4297 10.7322V18.1802H41.6499V5.87465ZM18.1834 18.1802H15.4069V0.292969H18.19L18.1834 18.1802ZM21.346 5.87465H24.1324V18.1802H21.346V5.87465ZM9.49116 5.87465H12.241V18.1802H9.49116L9.44789 16.8918C9.20154 17.1434 8.93521 17.3711 8.64891 17.5717C8.36261 17.7723 8.05634 17.9422 7.73675 18.085C7.42048 18.2244 7.08758 18.3331 6.74802 18.408C6.40845 18.4827 6.06222 18.5235 5.71601 18.5303C2.43355 18.5269 0 15.8279 0 12.0444C0 8.00942 2.63662 5.53131 5.71601 5.53131C6.06556 5.52112 6.4151 5.54832 6.758 5.6163C7.10089 5.68429 7.43713 5.78627 7.76005 5.92903C8.07965 6.07181 8.38592 6.24518 8.66889 6.45593C8.95185 6.66329 9.21485 6.90464 9.44789 7.16979L9.49116 5.87465ZM2.84302 12.0444C2.84302 14.4069 4.25787 15.9808 6.22869 15.9808C8.02305 15.9808 9.62765 14.6347 9.62765 12.0444C9.62765 9.51531 8.08963 8.108 6.23867 8.108C4.17132 8.108 2.84302 9.76347 2.84302 12.0444ZM38.484 16.9632C38.484 22.2458 35.4612 23.9964 31.9024 23.9964C31.5296 24.0032 31.1579 23.9873 30.7872 23.9488C30.4188 23.9102 30.0526 23.8491 29.6886 23.7653C29.3269 23.6836 28.9707 23.5795 28.62 23.4525C28.2693 23.3256 27.9275 23.1794 27.5946 23.014L28.2837 20.5733C28.5567 20.7297 28.8386 20.8679 29.1294 20.988C29.42 21.1081 29.7175 21.209 30.0215 21.2905C30.3234 21.3699 30.6297 21.43 30.9403 21.4707C31.2532 21.5115 31.5662 21.5307 31.8791 21.5285C33.9498 21.5285 35.7076 20.1722 35.7076 17.7281V16.8816C35.4712 17.1468 35.2048 17.3881 34.9185 17.5955C34.6323 17.8029 34.3227 17.9796 33.9998 18.1224C33.6769 18.2618 33.3373 18.3671 32.991 18.4352C32.6481 18.5031 32.2952 18.5303 31.9424 18.5235C28.6998 18.5235 26.2497 15.8551 26.2497 12.0206C26.2497 8.34935 28.5567 5.52452 31.9557 5.52452C32.3052 5.51092 32.6548 5.53812 33.0011 5.60611C33.344 5.67069 33.6802 5.77607 34.0031 5.91884C34.326 6.05821 34.629 6.23498 34.9152 6.44573C35.1982 6.65649 35.4579 6.89785 35.6909 7.163L35.7275 5.86786H38.484V16.9632ZM35.8607 12.0444C35.8607 9.47792 34.2793 8.108 32.4784 8.108C30.3278 8.108 29.086 9.89604 29.086 12.0444C29.086 14.3117 30.4244 15.9808 32.4784 15.9808C34.3693 15.9808 35.8607 14.5429 35.8607 12.0444Z" fill="#3D3935"/>
</g>
</g>
<defs>
<clipPath id="clip0_4251_5491">
<rect width="52" height="24" fill="white"/>
</clipPath>
</defs>
</svg>
