<svg width="53" height="24" viewBox="0 0 53 24" fill="none" xmlns="http://www.w3.org/2000/svg">
<g clip-path="url(#clip0_4251_5443)">
<mask id="mask0_4251_5443" style="mask-type:luminance" maskUnits="userSpaceOnUse" x="0" y="0" width="53" height="24">
<path d="M53 0H0V23.9193H53V0Z" fill="white"/>
</mask>
<g mask="url(#mask0_4251_5443)">
<path d="M13.3906 5.48664L14.3425 7.75836L16.6402 8.69942L18.9378 3.21484L13.3906 5.48664Z" fill="#68C431"/>
<path d="M3.25 3.21484L5.54778 8.69942L7.84554 7.75836L8.79735 5.48664L3.25 3.21484Z" fill="#F8A80E"/>
<path d="M18.9408 9.64021L16.6432 8.69922L15.6914 10.9711L16.6432 13.2429L18.9408 12.3019L22.1905 10.9711L18.9408 9.64021Z" fill="#F8E907"/>
<path d="M17.592 15.5124L16.6402 13.2406L15.6884 10.9688L14.3425 14.1816L13.3906 16.4534L15.6884 17.3945L18.9378 18.7254L17.592 15.5124Z" fill="#50AEE5"/>
<path d="M5.54729 8.69922L3.2495 9.64021L0 10.9711L3.2495 12.3019L5.54729 13.2429L6.49909 10.9711L5.54729 8.69922Z" fill="#F8E907"/>
<path d="M5.54688 8.69887L6.49869 10.9707L7.84464 7.75781L5.54688 8.69887Z" fill="#FACC09"/>
<path d="M14.3438 7.75781L15.6896 10.9707L16.6415 8.69887L14.3438 7.75781Z" fill="#B7DD19"/>
<path d="M7.84554 14.1816L6.49959 10.9688L5.54778 13.2406L4.59597 15.5124L3.25 18.7254L6.49959 17.3945L8.79735 16.4534L7.84554 14.1816Z" fill="#50AEE5"/>
<path d="M8.79776 16.4541L11.0956 10.9694L13.3932 16.4541L14.3451 14.1822L15.691 10.9694L14.3451 7.75651L13.3932 5.48479L11.0956 0L8.79776 5.48479L7.84596 7.75651L6.5 10.9694L7.84596 14.1822L8.79776 16.4541Z" fill="#3C85CE"/>
<path d="M27.9629 7.01078L27.0117 4.27296H26.9905L26.0076 7.01078H27.9629ZM27.8677 2.43359L30.6898 9.89495H28.967L28.3963 8.23341H25.5744L24.9824 9.89495H23.3125L26.1662 2.43359H27.8677Z" fill="#5A5758"/>
<path d="M32.5088 2.43359V9.89495H31.0078V2.43359H32.5088Z" fill="#5A5758"/>
<path d="M34.9148 2.43359V9.89495H33.4141V2.43359H34.9148Z" fill="#5A5758"/>
<path d="M37.3169 4.49243V9.89495H35.8164V4.49243H37.3169ZM35.8164 3.65634V2.43359H37.3169V3.65634H35.8164Z" fill="#5A5758"/>
<path d="M41.6167 7.24884C41.553 7.30461 41.4737 7.34808 41.3786 7.37946C41.2834 7.41082 41.1815 7.43699 41.0721 7.4579C40.9628 7.47875 40.8481 7.49613 40.7285 7.51007C40.6087 7.52413 40.489 7.54137 40.3692 7.56236C40.2564 7.58329 40.1455 7.61114 40.0362 7.64598C39.9271 7.68089 39.8319 7.7279 39.7508 7.78691C39.6699 7.84628 39.6046 7.92126 39.5553 8.01173C39.5061 8.10227 39.4814 8.21727 39.4814 8.35649C39.4814 8.48894 39.5061 8.60041 39.5553 8.69087C39.6046 8.78161 39.6719 8.85293 39.7563 8.90508C39.8409 8.95739 39.9395 8.99393 40.0522 9.01485C40.1647 9.03577 40.2811 9.04616 40.4008 9.04616C40.697 9.04616 40.9258 8.99754 41.088 8.89985C41.2499 8.80239 41.3698 8.68562 41.4472 8.54987C41.525 8.41402 41.5722 8.27663 41.59 8.13711C41.6077 7.99781 41.6167 7.88629 41.6167 7.80275V7.24884ZM38.1498 6.15152C38.171 5.80333 38.259 5.51402 38.414 5.28424C38.5688 5.05427 38.7662 4.8699 39.0058 4.7304C39.2454 4.59108 39.5147 4.49193 39.8145 4.43258C40.1138 4.3736 40.4149 4.34375 40.7181 4.34375C40.9928 4.34375 41.2713 4.36311 41.553 4.40129C41.8346 4.43965 42.0919 4.51455 42.3247 4.62582C42.5571 4.73746 42.7472 4.89233 42.8955 5.091C43.0435 5.28949 43.1172 5.55255 43.1172 5.87982V8.69087C43.1172 8.93477 43.1313 9.16828 43.1593 9.39099C43.1875 9.61419 43.2371 9.7812 43.3075 9.89264H41.7853C41.7574 9.80904 41.7345 9.7238 41.7168 9.63674C41.6992 9.54958 41.6868 9.46081 41.6796 9.37015C41.4402 9.61419 41.1585 9.78479 40.8341 9.88218C40.5103 9.97965 40.179 10.0284 39.8409 10.0284C39.58 10.0284 39.3371 9.99704 39.1116 9.93442C38.8861 9.87166 38.6887 9.77433 38.5198 9.64189C38.3505 9.5096 38.2183 9.34243 38.1234 9.14029C38.0284 8.93829 37.9805 8.69793 37.9805 8.41918C37.9805 8.11279 38.035 7.86012 38.1445 7.66152C38.2535 7.46313 38.3944 7.30461 38.5674 7.18622C38.7397 7.06778 38.9372 6.97886 39.1592 6.9197C39.3812 6.86062 39.6046 6.81355 39.8302 6.77863C40.0555 6.74378 40.2776 6.71586 40.4962 6.69495C40.7144 6.67411 40.9084 6.64278 41.0774 6.60096C41.2464 6.55918 41.3804 6.49818 41.479 6.41803C41.5779 6.33802 41.6234 6.22134 41.6167 6.06805C41.6167 5.90789 41.5899 5.78071 41.5371 5.68663C41.4843 5.59255 41.4139 5.51945 41.3258 5.46716C41.2374 5.41487 41.1356 5.38013 41.0194 5.36258C40.903 5.34539 40.7778 5.33652 40.6441 5.33652C40.3479 5.33652 40.1155 5.39931 39.9466 5.5247C39.7775 5.65008 39.6789 5.85906 39.6507 6.15152H38.1498Z" fill="#5A5758"/>
<path d="M45.4269 4.49012V5.24244H45.4587C45.6488 4.92907 45.8953 4.70091 46.1983 4.55797C46.5013 4.41522 46.8114 4.34375 47.1286 4.34375C47.53 4.34375 47.8595 4.39785 48.1164 4.50568C48.3739 4.61388 48.5764 4.76351 48.7243 4.95512C48.8722 5.14672 48.9761 5.38013 49.0362 5.65515C49.0959 5.93051 49.1258 6.2352 49.1258 6.56957V9.89264H47.6252V6.84125C47.6252 6.39556 47.5546 6.06276 47.4136 5.8433C47.2728 5.62385 47.0228 5.51402 46.6636 5.51402C46.2545 5.51402 45.9589 5.63434 45.7756 5.87468C45.5923 6.11504 45.5006 6.51049 45.5006 7.06071V9.89264H44V4.49012H45.4269Z" fill="#5A5758"/>
<path d="M52.9383 4.4908V5.4834H51.8393V8.15871C51.8393 8.40948 51.8815 8.57663 51.9661 8.66017C52.0506 8.74384 52.2197 8.78563 52.4735 8.78563C52.5576 8.78563 52.6387 8.78229 52.7165 8.77524C52.7939 8.7683 52.868 8.75785 52.9383 8.74384V9.89333C52.8117 9.91427 52.6706 9.9281 52.5156 9.9351C52.3604 9.94204 52.2091 9.94563 52.0612 9.94563C51.8288 9.94563 51.6083 9.92988 51.4005 9.89856C51.1927 9.86719 51.0095 9.80641 50.8513 9.71565C50.6926 9.62519 50.5671 9.49627 50.4757 9.32898C50.384 9.16191 50.3383 8.94245 50.3383 8.67076V5.4834H49.4297V4.4908H50.3383V2.87109H51.8393V4.4908H52.9383Z" fill="#5A5758"/>
<path d="M28.1847 11.2617V11.9507H24.368V13.9059H27.9258V14.595H24.368V16.7224H28.2135V17.4113H23.457V11.2617H28.1847Z" fill="#5A5758"/>
<path d="M29.9508 12.9592V13.6652H29.97C30.3087 13.1257 30.8458 12.8555 31.5813 12.8555C31.9073 12.8555 32.1789 12.8957 32.3961 12.9762C32.6134 13.0567 32.7894 13.1687 32.9238 13.3121C33.0577 13.4556 33.1523 13.6266 33.2065 13.8246C33.2609 14.0228 33.2881 14.2423 33.2881 14.4836V17.4118H32.4729V14.3973C32.4729 14.1218 32.3834 13.9034 32.2046 13.7429C32.0255 13.5822 31.7794 13.5016 31.4662 13.5016C31.2168 13.5016 31.001 13.5362 30.8187 13.605C30.6366 13.674 30.4844 13.7716 30.3633 13.8978C30.2416 14.0242 30.1504 14.1723 30.09 14.3414C30.0293 14.5109 29.9987 14.696 29.9987 14.8968V17.4118H29.1836V12.9592H29.9508Z" fill="#5A5758"/>
<path d="M37.8279 14.268C37.7544 14.113 37.6554 13.9798 37.5305 13.8678C37.406 13.7558 37.2588 13.6668 37.0895 13.6006C36.9199 13.5347 36.7331 13.5016 36.5286 13.5016C36.3174 13.5016 36.1272 13.5347 35.9579 13.6006C35.7886 13.6668 35.643 13.7572 35.5216 13.872C35.4001 13.9869 35.3042 14.1204 35.2337 14.2726C35.1636 14.4248 35.122 14.5868 35.1093 14.7592H37.9573C37.9445 14.5868 37.9015 14.4232 37.8279 14.268ZM38.0245 17.1277C37.6536 17.3804 37.1869 17.5066 36.6245 17.5066C36.2278 17.5066 35.8841 17.4493 35.5936 17.3346C35.3024 17.2196 35.0581 17.0588 34.8598 16.852C34.6617 16.6454 34.5131 16.3986 34.4139 16.1113C34.3147 15.8244 34.2589 15.5114 34.2461 15.1725C34.2461 14.8338 34.3035 14.5239 34.4187 14.2423C34.5336 13.961 34.6952 13.7171 34.9029 13.5102C35.1107 13.3034 35.3568 13.1428 35.6413 13.0278C35.9259 12.9131 36.2375 12.8555 36.5762 12.8555C37.0176 12.8555 37.3836 12.9373 37.6743 13.1011C37.9652 13.2647 38.1987 13.473 38.3747 13.7255C38.5504 13.9784 38.6717 14.254 38.7389 14.5526C38.806 14.8509 38.8331 15.1353 38.8205 15.4052H35.1093C35.1027 15.6005 35.1283 15.7856 35.186 15.9607C35.2434 16.1357 35.3362 16.2908 35.4639 16.4259C35.5919 16.5607 35.7549 16.6683 35.9529 16.7488C36.1511 16.8293 36.3849 16.8693 36.6529 16.8693C36.9984 16.8693 37.2813 16.7977 37.5018 16.654C37.7224 16.5106 37.8678 16.2921 37.9383 15.9993H38.7439C38.6348 16.499 38.3953 16.8751 38.0245 17.1277Z" fill="#5A5758"/>
<path d="M40.4042 12.9564V13.895H40.4232C40.6212 13.5333 40.8643 13.2663 41.1519 13.0939C41.4398 12.9216 41.8043 12.8413 42.2452 12.8526V13.6282C41.9194 13.6282 41.6411 13.6683 41.4111 13.7484C41.181 13.8289 40.9951 13.9466 40.8548 14.1019C40.714 14.2569 40.6115 14.4449 40.5479 14.6658C40.484 14.887 40.4518 15.1409 40.4518 15.4282V17.4089H39.6367V12.9564H40.4042Z" fill="#5A5758"/>
<path d="M45.2691 16.6669C45.4578 16.5665 45.6097 16.4342 45.7246 16.2706C45.8397 16.1071 45.9243 15.9219 45.9788 15.7151C46.033 15.5084 46.0604 15.3015 46.0604 15.095C46.0604 14.8999 46.0348 14.7075 45.984 14.5179C45.9324 14.3286 45.8509 14.1577 45.7391 14.0054C45.6271 13.8533 45.4817 13.7313 45.303 13.6392C45.1237 13.5476 44.9064 13.5016 44.6506 13.5016C44.3886 13.5016 44.1649 13.5461 43.9794 13.6351C43.7938 13.7242 43.6422 13.8432 43.5237 13.9927C43.4055 14.1419 43.3193 14.3142 43.265 14.5092C43.2104 14.7047 43.1837 14.9084 43.1837 15.1206C43.1837 15.3219 43.2056 15.5226 43.2505 15.7237C43.2951 15.9247 43.372 16.1071 43.4807 16.2706C43.5894 16.4342 43.7333 16.5665 43.9122 16.6669C44.0911 16.7673 44.315 16.8178 44.5836 16.8178C44.8521 16.8178 45.0807 16.7673 45.2691 16.6669ZM46.3096 18.6693C45.9389 19.031 45.357 19.2119 44.5646 19.2119C44.3342 19.2119 44.0994 19.1888 43.8595 19.143C43.6198 19.097 43.4024 19.0225 43.2075 18.9192C43.0123 18.8159 42.8508 18.681 42.7231 18.5142C42.5952 18.3478 42.5247 18.1443 42.5121 17.9026H43.3273C43.3336 18.035 43.3801 18.147 43.4663 18.2389C43.5528 18.3306 43.6582 18.4051 43.7828 18.4627C43.9075 18.5198 44.0432 18.5617 44.1904 18.5874C44.3375 18.6132 44.4778 18.6262 44.6121 18.6262C44.8808 18.6262 45.1078 18.5847 45.2931 18.5014C45.4785 18.418 45.6321 18.3033 45.7535 18.157C45.8747 18.0104 45.9627 17.8338 46.0173 17.6274C46.0712 17.4205 46.0987 17.1938 46.0987 16.9468V16.6539H46.0795C45.9389 16.9297 45.7261 17.1318 45.4419 17.2612C45.1573 17.3905 44.8552 17.4548 44.5355 17.4548C44.1649 17.4548 43.8422 17.3947 43.5673 17.2742C43.2922 17.1536 43.062 16.9911 42.8766 16.7874C42.6911 16.5836 42.552 16.3453 42.4596 16.0726C42.3666 15.7997 42.3203 15.5113 42.3203 15.2069C42.3203 14.9429 42.3586 14.6716 42.4354 14.3928C42.5121 14.1146 42.6398 13.862 42.8191 13.6351C42.9978 13.4083 43.2346 13.2217 43.5288 13.0751C43.8228 12.9287 44.1841 12.8555 44.6121 12.8555C44.9253 12.8555 45.2132 12.9174 45.4754 13.0408C45.7374 13.1642 45.9422 13.3496 46.0891 13.5962H46.0987V12.9591H46.8658V17.0328C46.8658 17.762 46.6804 18.3075 46.3096 18.6693Z" fill="#5A5758"/>
<path d="M50.0423 18.0041C49.9463 18.222 49.8521 18.4058 49.7598 18.5552C49.6668 18.7047 49.5645 18.8266 49.4527 18.9214C49.3409 19.0159 49.2159 19.085 49.0788 19.128C48.9411 19.171 48.7829 19.1928 48.6038 19.1928C48.5078 19.1928 48.412 19.1867 48.3163 19.1752C48.2203 19.1638 48.1276 19.1438 48.0382 19.115V18.4432C48.1082 18.472 48.19 18.4964 48.2828 18.5164C48.3752 18.5368 48.4537 18.5465 48.5177 18.5465C48.6839 18.5465 48.823 18.5109 48.9348 18.4391C49.0464 18.3672 49.1311 18.2651 49.1888 18.1333L49.5246 17.3839L47.5586 12.957H48.4795L49.9272 16.6H49.9463L51.3372 12.957H52.2L50.0423 18.0041Z" fill="#5A5758"/>
<path d="M24.5091 22.2146C24.6659 22.2146 24.7845 22.175 24.8649 22.0959C24.9453 22.0165 24.9854 21.9143 24.9854 21.7892C24.9854 21.7245 24.976 21.6703 24.9569 21.6263C24.9377 21.5825 24.9121 21.5469 24.88 21.5207C24.8478 21.4941 24.8107 21.4751 24.7686 21.4634C24.7263 21.4518 24.681 21.4458 24.6328 21.4458H24.0265L23.8607 22.2146H24.5091ZM24.6328 21.2109C24.8398 21.2109 24.9982 21.259 25.1077 21.3548C25.2171 21.4509 25.2722 21.5955 25.2722 21.7892C25.2722 21.8536 25.259 21.9245 25.2327 22.002C25.2067 22.079 25.162 22.1511 25.0985 22.2176C25.0354 22.2841 24.9508 22.3393 24.8453 22.3833C24.7397 22.4274 24.6075 22.4495 24.4487 22.4495H23.8093L23.6225 23.3062H23.3359L23.7854 21.2109H24.6328Z" fill="#918F90"/>
<path d="M26.0329 23.0067C26.1051 23.0831 26.2116 23.1213 26.3524 23.1213C26.447 23.1213 26.5297 23.0977 26.6013 23.0508C26.6726 23.0038 26.7328 22.9447 26.782 22.8734C26.8315 22.8018 26.8686 22.7243 26.8939 22.6399C26.919 22.556 26.9314 22.4767 26.9314 22.4024C26.9314 22.3438 26.9233 22.2881 26.9074 22.2353C26.8911 22.1823 26.8663 22.1368 26.8321 22.0986C26.7978 22.0605 26.7552 22.0303 26.7038 22.0076C26.6525 21.9852 26.5915 21.974 26.5213 21.974C26.4227 21.974 26.3363 21.9975 26.262 22.0443C26.1875 22.0914 26.1253 22.1505 26.0751 22.2219C26.0249 22.2933 25.9869 22.372 25.9619 22.4581C25.9368 22.5442 25.9244 22.6264 25.9244 22.7046C25.9244 22.8298 25.9606 22.9305 26.0329 23.0067ZM25.7267 22.3495C25.7659 22.2341 25.8232 22.1325 25.8987 22.0443C25.974 21.9565 26.0655 21.8859 26.1731 21.833C26.2804 21.7804 26.4028 21.7539 26.5396 21.7539C26.7504 21.7539 26.9115 21.8071 27.022 21.9138C27.1325 22.0204 27.188 22.1765 27.188 22.3818C27.188 22.5049 27.1687 22.6244 27.1306 22.7398C27.0923 22.8553 27.0359 22.9575 26.9616 23.0463C26.8873 23.1354 26.7968 23.2063 26.6902 23.2592C26.5835 23.3119 26.462 23.3384 26.3253 23.3384C26.2229 23.3384 26.1308 23.3226 26.0494 23.2913C25.9679 23.2602 25.8992 23.2166 25.843 23.1608C25.7866 23.1051 25.7433 23.0387 25.7132 22.9613C25.6828 22.8842 25.668 22.7995 25.668 22.7074C25.668 22.5843 25.6876 22.465 25.7267 22.3495Z" fill="#918F90"/>
<path d="M28.9218 23.306L28.8433 22.1265H28.8373L28.2795 23.306H28.0081L27.8242 21.7891H28.0954L28.1918 22.995H28.1981L28.7589 21.7891H29.0484L29.1239 22.995H29.1298L29.7211 21.7891H29.9984L29.1934 23.306H28.9218Z" fill="#918F90"/>
<path d="M31.563 22.2453C31.5517 22.1937 31.5316 22.1477 31.5026 22.1075C31.4734 22.0674 31.4346 22.0351 31.3865 22.0107C31.3383 21.9863 31.2789 21.974 31.2085 21.974C31.1342 21.974 31.0674 21.9852 31.0081 22.0076C30.9486 22.0303 30.8969 22.061 30.8526 22.1003C30.8085 22.1394 30.7713 22.1848 30.7411 22.2366C30.7111 22.2884 30.6869 22.3438 30.6688 22.4024H31.5736C31.5776 22.3495 31.5737 22.2973 31.563 22.2453ZM30.6234 22.7545C30.6234 22.8132 30.6346 22.8655 30.6567 22.9114C30.6788 22.9575 30.7088 22.9955 30.7471 23.0259C30.7854 23.0563 30.8286 23.0797 30.8768 23.0963C30.9252 23.1129 30.9753 23.1213 31.0275 23.1213C31.142 23.1213 31.2366 23.0963 31.3109 23.0463C31.3854 22.9966 31.4406 22.9248 31.4769 22.8309H31.7333C31.7132 22.9148 31.6807 22.9888 31.6366 23.0523C31.5924 23.1158 31.5393 23.1686 31.4769 23.2108C31.4145 23.253 31.3451 23.2847 31.2687 23.3062C31.1924 23.3275 31.112 23.3384 31.0275 23.3384C30.8989 23.3384 30.7918 23.3191 30.7065 23.281C30.6208 23.2431 30.5531 23.1942 30.5029 23.1345C30.4527 23.0747 30.4173 23.0092 30.3974 22.9378C30.3772 22.8665 30.3672 22.7975 30.3672 22.731C30.3672 22.5864 30.3888 22.4538 30.432 22.3335C30.4754 22.2132 30.5336 22.11 30.607 22.0239C30.6803 21.9377 30.7656 21.8712 30.8634 21.8243C30.9607 21.7773 31.0627 21.7539 31.1695 21.7539C31.3985 21.7539 31.5658 21.8125 31.6714 21.93C31.7772 22.0474 31.8299 22.2126 31.8299 22.4259C31.8299 22.465 31.8268 22.5021 31.8208 22.5374C31.8147 22.5726 31.8098 22.601 31.8056 22.6224H30.6326C30.6266 22.6655 30.6234 22.7096 30.6234 22.7545Z" fill="#918F90"/>
<path d="M32.857 21.7892L32.7814 22.1148H32.7875C32.8478 22.0111 32.9247 21.9251 33.0182 21.8564C33.1119 21.7881 33.2239 21.7538 33.3546 21.7538C33.3707 21.7538 33.3858 21.753 33.3997 21.751C33.4138 21.749 33.4289 21.75 33.445 21.7538L33.3848 22.0209C33.3767 22.0189 33.3635 22.0178 33.3456 22.0178H33.3093C33.277 22.0178 33.2508 22.0184 33.2311 22.0195C33.2107 22.0204 33.1856 22.0247 33.1555 22.0325C33.085 22.0502 33.0222 22.0806 32.9669 22.1235C32.9117 22.1666 32.8638 22.2185 32.8235 22.2791C32.7895 22.328 32.7623 22.3852 32.7422 22.4506C32.7223 22.5163 32.7061 22.5775 32.6941 22.6341L32.5462 23.3061H32.293L32.6156 21.7892H32.857Z" fill="#918F90"/>
<path d="M34.0288 21.5162L34.095 21.2109H34.3543L34.2883 21.5162H34.0288ZM34.2276 21.7892L33.9019 23.3062H33.6484L33.9713 21.7892H34.2276Z" fill="#918F90"/>
<path d="M35.2409 21.7892L35.1928 22.0179H35.1986C35.2631 21.93 35.3445 21.864 35.4429 21.8199C35.5414 21.776 35.6452 21.7539 35.7535 21.7539C35.9002 21.7539 36.0095 21.7852 36.0808 21.8476C36.1522 21.9104 36.1877 22.0092 36.1877 22.1442C36.1877 22.1775 36.1837 22.2204 36.1758 22.2734C36.1678 22.3262 36.1566 22.3818 36.1427 22.4406L35.9526 23.3062H35.6962L35.8954 22.4199C35.8971 22.4044 35.9002 22.3863 35.9045 22.3656C35.9083 22.3452 35.9123 22.3235 35.9165 22.3011C35.9204 22.2787 35.9239 22.2571 35.9269 22.2366C35.9299 22.216 35.9315 22.1988 35.9315 22.1853C35.9315 22.1129 35.9052 22.0595 35.8533 22.0253C35.8009 21.9912 35.7364 21.974 35.6601 21.974C35.5897 21.974 35.5198 21.9906 35.4506 22.0239C35.381 22.0571 35.3223 22.0991 35.2742 22.15C35.2279 22.1893 35.1915 22.2366 35.1653 22.2924C35.1396 22.3481 35.1183 22.4062 35.1024 22.4668L34.9212 23.3062H34.668L34.9935 21.7892H35.2409Z" fill="#918F90"/>
<path d="M37.0516 22.8454C37.0675 22.8944 37.0912 22.9371 37.1224 22.9744C37.1536 23.0118 37.1934 23.0415 37.2415 23.0641C37.2899 23.0865 37.346 23.0977 37.4104 23.0977C37.5071 23.0977 37.5909 23.0741 37.6622 23.0273C37.7336 22.9803 37.7925 22.9207 37.8388 22.8484C37.8847 22.7759 37.9195 22.6973 37.9427 22.612C37.9658 22.527 37.9774 22.4463 37.9774 22.3699C37.9774 22.2508 37.9446 22.1549 37.8794 22.0825C37.8141 22.01 37.7139 21.9739 37.5793 21.9739C37.4889 21.9739 37.4093 21.9985 37.3411 22.0474C37.2726 22.0962 37.2156 22.1565 37.1692 22.2278C37.1229 22.2992 37.0878 22.3763 37.0637 22.4595C37.0395 22.5428 37.0272 22.6195 37.0272 22.6899C37.0272 22.7446 37.0355 22.7965 37.0516 22.8454ZM38.0346 23.3104C38.0145 23.3817 37.9936 23.444 37.9713 23.4968C37.9049 23.6494 37.8124 23.7579 37.6939 23.8225C37.5753 23.887 37.4313 23.9193 37.2629 23.9193C37.1821 23.9193 37.1053 23.9104 37.032 23.8928C36.9584 23.8753 36.8936 23.8479 36.8375 23.8108C36.7811 23.7737 36.7355 23.7252 36.7002 23.6654C36.6651 23.6058 36.6464 23.5339 36.6445 23.4498H36.8977C36.9017 23.5008 36.9153 23.5423 36.9385 23.5744C36.9615 23.6068 36.9908 23.6321 37.0259 23.6509C37.0611 23.6695 37.1017 23.6821 37.148 23.689C37.1942 23.6957 37.2415 23.6993 37.2899 23.6993C37.3881 23.6993 37.4691 23.6816 37.5325 23.6464C37.596 23.6111 37.6476 23.5652 37.6879 23.5086C37.7281 23.4517 37.7598 23.3869 37.7827 23.3134C37.8059 23.2401 37.8275 23.1662 37.8476 23.0917L37.8416 23.0861C37.7854 23.1681 37.7151 23.2269 37.6305 23.262C37.5462 23.2972 37.4547 23.3148 37.3561 23.3148C37.2598 23.3148 37.1747 23.2999 37.1013 23.2694C37.0279 23.239 36.9672 23.1959 36.9189 23.1404C36.8705 23.0845 36.8337 23.0185 36.8087 22.9423C36.7836 22.866 36.771 22.7817 36.771 22.6899C36.771 22.5784 36.7896 22.4668 36.8271 22.3555C36.8642 22.2439 36.9173 22.1436 36.9868 22.0546C37.0561 21.9656 37.141 21.8932 37.2415 21.8375C37.3421 21.7818 37.4556 21.7539 37.5824 21.7539C37.6406 21.7539 37.6965 21.7611 37.7497 21.7759C37.8029 21.7907 37.8522 21.811 37.8976 21.8375C37.9427 21.8638 37.9807 21.8963 38.0121 21.9343C38.0432 21.9724 38.0648 22.015 38.0771 22.062V22.0679H38.083L38.1311 21.7892H38.3724L38.0919 23.0861C38.0739 23.1642 38.0548 23.239 38.0346 23.3104Z" fill="#918F90"/>
<path d="M41.1662 22.1118C41.472 22.1118 41.6248 21.979 41.6248 21.7129C41.6248 21.6503 41.6112 21.6012 41.584 21.5661C41.5569 21.5308 41.5222 21.5046 41.48 21.4869C41.4379 21.4694 41.392 21.4581 41.3426 21.4532C41.2934 21.4482 41.2467 21.4458 41.2026 21.4458H40.6717L40.5269 22.1118H41.1662ZM41.0156 23.0713C41.0516 23.0713 41.099 23.0681 41.1574 23.0612C41.2156 23.0543 41.2727 23.0366 41.3293 23.0083C41.3856 22.9799 41.4341 22.9383 41.4754 22.8837C41.5167 22.8289 41.5373 22.7534 41.5373 22.6578C41.5373 22.5911 41.525 22.5374 41.5011 22.4964C41.4771 22.4551 41.4444 22.4239 41.403 22.4024C41.362 22.3809 41.3146 22.3662 41.2613 22.3584C41.2081 22.3505 41.1521 22.3465 41.0941 22.3465H40.4788L40.322 23.0713H41.0156ZM41.3111 21.2109C41.5222 21.2109 41.6751 21.2552 41.7694 21.343C41.8639 21.4311 41.9114 21.5544 41.9114 21.7129C41.9114 21.7715 41.9017 21.8289 41.8825 21.8844C41.8636 21.9404 41.8364 21.9912 41.8011 22.0371C41.7661 22.0831 41.723 22.1222 41.6731 22.1544C41.6228 22.1867 41.5653 22.2077 41.5011 22.2176V22.2234C41.5996 22.2508 41.678 22.3022 41.7364 22.3775C41.7946 22.4528 41.8237 22.5461 41.8237 22.6578C41.8237 22.7574 41.8041 22.8473 41.765 22.9275C41.7258 23.0078 41.6714 23.0758 41.6021 23.1316C41.5328 23.1873 41.4519 23.2304 41.3593 23.2608C41.2668 23.2912 41.1673 23.3062 41.0608 23.3062H39.9961L40.4457 21.2109H41.3111Z" fill="#918F90"/>
<path d="M43.6176 22.2453C43.6064 22.1937 43.5863 22.1477 43.5572 22.1075C43.5283 22.0674 43.4893 22.0351 43.4412 22.0107C43.3928 21.9863 43.3336 21.974 43.2633 21.974C43.1888 21.974 43.122 21.9852 43.0627 22.0076C43.0036 22.0303 42.9514 22.061 42.9072 22.1003C42.863 22.1394 42.8259 22.1848 42.7957 22.2366C42.7657 22.2884 42.7416 22.3438 42.7234 22.4024H43.6283C43.6323 22.3495 43.6286 22.2973 43.6176 22.2453ZM42.6781 22.7545C42.6781 22.8132 42.6894 22.8655 42.7114 22.9114C42.7335 22.9575 42.7637 22.9955 42.8018 23.0259C42.84 23.0563 42.8832 23.0797 42.9315 23.0963C42.9799 23.1129 43.03 23.1213 43.0821 23.1213C43.1967 23.1213 43.2915 23.0963 43.3658 23.0463C43.4401 22.9966 43.4953 22.9248 43.5316 22.8309H43.788C43.7679 22.9148 43.7358 22.9888 43.6913 23.0523C43.647 23.1158 43.594 23.1686 43.5316 23.2108C43.4694 23.253 43.4 23.2847 43.3235 23.3062C43.2472 23.3275 43.1667 23.3384 43.0821 23.3384C42.9535 23.3384 42.8464 23.3191 42.7612 23.281C42.6757 23.2431 42.6078 23.1942 42.5577 23.1345C42.5073 23.0747 42.472 23.0092 42.4521 22.9378C42.4319 22.8665 42.4219 22.7975 42.4219 22.731C42.4219 22.5864 42.4435 22.4538 42.4866 22.3335C42.53 22.2132 42.5882 22.11 42.6616 22.0239C42.735 21.9377 42.8204 21.8712 42.918 21.8243C43.0154 21.7773 43.1174 21.7539 43.2242 21.7539C43.4533 21.7539 43.6207 21.8125 43.7261 21.93C43.8319 22.0474 43.8846 22.2126 43.8846 22.4259C43.8846 22.465 43.8815 22.5021 43.8755 22.5374C43.8694 22.5726 43.8644 22.601 43.8603 22.6224H42.6872C42.6812 22.6655 42.6781 22.7096 42.6781 22.7545Z" fill="#918F90"/>
<path d="M44.7577 23.7006C44.7255 23.7446 44.6904 23.7827 44.6524 23.8149C44.6141 23.8473 44.5707 23.8727 44.5226 23.8913C44.4743 23.9098 44.4179 23.9191 44.3537 23.9191C44.3235 23.9191 44.2924 23.9156 44.2601 23.9088C44.2279 23.902 44.1998 23.8927 44.1758 23.8809L44.2208 23.6785C44.241 23.6903 44.2651 23.7 44.2934 23.7079C44.3215 23.7158 44.3458 23.7195 44.3657 23.7195C44.4238 23.7195 44.4712 23.7043 44.5075 23.6742C44.5438 23.6438 44.5768 23.6042 44.6068 23.5553L44.7638 23.306L44.4893 21.7891H44.7638L44.9448 22.9949H44.9509L45.6052 21.7891H45.8856L44.8542 23.5612C44.822 23.6101 44.7897 23.6566 44.7577 23.7006Z" fill="#918F90"/>
<path d="M46.5758 23.0067C46.6479 23.0831 46.7544 23.1213 46.8953 23.1213C46.9899 23.1213 47.0728 23.0977 47.1442 23.0508C47.2156 23.0038 47.2758 22.9447 47.3252 22.8734C47.3742 22.8018 47.4114 22.7243 47.4368 22.6399C47.4618 22.556 47.4744 22.4767 47.4744 22.4024C47.4744 22.3438 47.4663 22.2881 47.4504 22.2353C47.4341 22.1823 47.4092 22.1368 47.3749 22.0986C47.3408 22.0605 47.298 22.0303 47.2467 22.0076C47.1955 21.9852 47.1347 21.974 47.0642 21.974C46.9656 21.974 46.8793 21.9975 46.805 22.0443C46.7307 22.0914 46.6682 22.1505 46.6179 22.2219C46.5676 22.2933 46.5299 22.372 46.5048 22.4581C46.4798 22.5442 46.4671 22.6264 46.4671 22.7046C46.4671 22.8298 46.5034 22.9305 46.5758 23.0067ZM46.2697 22.3495C46.3088 22.2341 46.3659 22.1325 46.4415 22.0443C46.5171 21.9565 46.6085 21.8859 46.7158 21.833C46.8234 21.7804 46.9456 21.7539 47.0824 21.7539C47.2933 21.7539 47.4544 21.8071 47.5649 21.9138C47.6754 22.0204 47.7308 22.1765 47.7308 22.3818C47.7308 22.5049 47.7115 22.6244 47.6734 22.7398C47.6352 22.8553 47.5789 22.9575 47.5046 23.0463C47.4303 23.1354 47.3396 23.2063 47.2331 23.2592C47.1265 23.3119 47.005 23.3384 46.8682 23.3384C46.7655 23.3384 46.6737 23.3226 46.5923 23.2913C46.5108 23.2602 46.4419 23.2166 46.3858 23.1608C46.3293 23.1051 46.2861 23.0387 46.2561 22.9613C46.2258 22.8842 46.2109 22.7995 46.2109 22.7074C46.2109 22.5843 46.2303 22.465 46.2697 22.3495Z" fill="#918F90"/>
<path d="M48.8034 21.7892L48.7553 22.0179H48.7612C48.8258 21.93 48.907 21.864 49.0054 21.8199C49.1043 21.776 49.2079 21.7539 49.3163 21.7539C49.4628 21.7539 49.572 21.7852 49.6436 21.8476C49.7148 21.9104 49.7504 22.0092 49.7504 22.1442C49.7504 22.1775 49.7464 22.2204 49.7384 22.2734C49.7304 22.3262 49.7193 22.3818 49.7055 22.4406L49.5153 23.3062H49.2589L49.4581 22.4199C49.4599 22.4044 49.4628 22.3863 49.467 22.3656C49.471 22.3452 49.475 22.3235 49.479 22.3011C49.4831 22.2787 49.4866 22.2571 49.4896 22.2366C49.4928 22.216 49.4943 22.1988 49.4943 22.1853C49.4943 22.1129 49.4681 22.0595 49.416 22.0253C49.3636 21.9912 49.2992 21.974 49.2227 21.974C49.1525 21.974 49.0825 21.9906 49.0132 22.0239C48.9438 22.0571 48.8849 22.0991 48.8369 22.15C48.7906 22.1893 48.754 22.2366 48.7282 22.2924C48.7021 22.3481 48.6809 22.4062 48.6649 22.4668L48.4839 23.3062H48.2305L48.5562 21.7892H48.8034Z" fill="#918F90"/>
<path d="M50.6717 23.0127C50.735 23.0851 50.8369 23.1213 50.9778 23.1213C51.0741 23.1213 51.1606 23.0968 51.2373 23.0479C51.3136 22.9989 51.3773 22.9373 51.4285 22.8631C51.4797 22.7888 51.5191 22.7071 51.5462 22.618C51.5734 22.5291 51.5868 22.4454 51.5868 22.3671C51.5868 22.2537 51.5532 22.1598 51.4858 22.0854C51.4185 22.0112 51.3215 21.974 51.1948 21.974C51.0924 21.974 51.0028 21.997 50.9265 22.0429C50.8503 22.0891 50.7857 22.1482 50.7335 22.2204C50.6811 22.2928 50.642 22.3731 50.6158 22.461C50.5897 22.5492 50.5767 22.6353 50.5767 22.7193C50.5767 22.8424 50.6081 22.9403 50.6717 23.0127ZM51.4 23.3062L51.4542 23.089H51.4482C51.3716 23.1868 51.293 23.253 51.2115 23.287C51.13 23.3213 51.0369 23.3384 50.9326 23.3384C50.834 23.3384 50.7465 23.3233 50.67 23.293C50.5937 23.2626 50.5295 23.2204 50.4771 23.1669C50.4248 23.1129 50.3854 23.0479 50.3596 22.9716C50.3332 22.8952 50.3203 22.8112 50.3203 22.7193C50.3203 22.6038 50.3399 22.4889 50.379 22.3746C50.4184 22.26 50.4745 22.1569 50.5479 22.065C50.6215 21.9731 50.7119 21.8981 50.8195 21.8405C50.9267 21.783 51.049 21.7539 51.1859 21.7539C51.2341 21.7539 51.2832 21.7583 51.3336 21.7672C51.3839 21.776 51.4315 21.7907 51.4767 21.8111C51.522 21.8318 51.5616 21.859 51.596 21.8933C51.63 21.9275 51.6553 21.97 51.6714 22.021H51.6774L51.8432 21.2109H52.0967L51.6414 23.3062H51.4Z" fill="#918F90"/>
<path d="M52.3203 16.7391C52.3473 16.7391 52.3732 16.7381 52.3972 16.7366C52.4216 16.7348 52.4433 16.7297 52.4623 16.7217C52.481 16.7133 52.496 16.7009 52.5073 16.6841C52.5186 16.6672 52.5241 16.6436 52.5241 16.6131C52.5241 16.5875 52.5191 16.5673 52.5092 16.5519C52.4991 16.5369 52.4861 16.5252 52.4702 16.5171C52.4543 16.509 52.4357 16.5034 52.4151 16.5004C52.3944 16.4975 52.3742 16.496 52.354 16.496H52.1944V16.7391H52.3203ZM52.3734 16.3999C52.4656 16.3999 52.5339 16.418 52.5783 16.454C52.6228 16.4903 52.6448 16.545 52.6448 16.6183C52.6448 16.6872 52.6252 16.7377 52.5864 16.7696C52.5474 16.8019 52.4989 16.8207 52.4409 16.8266L52.6627 17.1638H52.5332L52.3219 16.8352H52.1944V17.1638H52.0738V16.3999H52.3734ZM51.8263 17.0021C51.8544 17.0705 51.8926 17.1296 51.9417 17.1797C51.9908 17.2298 52.0487 17.2692 52.1153 17.2978C52.1822 17.3264 52.2546 17.3405 52.3327 17.3405C52.4096 17.3405 52.481 17.3264 52.5474 17.2978C52.6135 17.2692 52.671 17.2298 52.7201 17.1797C52.7692 17.1296 52.8076 17.0705 52.8355 17.0021C52.863 16.934 52.877 16.8597 52.877 16.7793C52.877 16.7012 52.863 16.6282 52.8355 16.5607C52.8076 16.4931 52.7692 16.4347 52.7201 16.385C52.671 16.3356 52.6135 16.2964 52.5474 16.2679C52.481 16.2392 52.4096 16.225 52.3327 16.225C52.2546 16.225 52.1822 16.2392 52.1153 16.2679C52.0487 16.2964 51.9908 16.3356 51.9417 16.385C51.8926 16.4347 51.8544 16.4931 51.8263 16.5607C51.7988 16.6282 51.7848 16.7012 51.7848 16.7793C51.7848 16.8597 51.7988 16.934 51.8263 17.0021ZM51.7175 16.5222C51.7528 16.443 51.8011 16.3744 51.8619 16.3161C51.9228 16.2577 51.9936 16.212 52.0747 16.1786C52.1558 16.1456 52.2417 16.1289 52.3327 16.1289C52.4237 16.1289 52.5093 16.1456 52.5899 16.1786C52.6704 16.212 52.7406 16.2577 52.8007 16.3161C52.8612 16.3744 52.9088 16.443 52.9445 16.5222C52.9801 16.6015 52.9978 16.6872 52.9978 16.7793C52.9978 16.8736 52.9801 16.9607 52.9445 17.0408C52.9088 17.1207 52.8612 17.1899 52.8007 17.2487C52.7406 17.3077 52.6704 17.3533 52.5899 17.386C52.5093 17.4187 52.4237 17.4349 52.3327 17.4349C52.2417 17.4349 52.1558 17.4187 52.0747 17.386C51.9936 17.3533 51.9228 17.3077 51.8619 17.2487C51.8011 17.1899 51.7528 17.1207 51.7175 17.0408C51.6819 16.9607 51.6641 16.8736 51.6641 16.7793C51.6641 16.6872 51.6819 16.6015 51.7175 16.5222Z" fill="#5A5758"/>
</g>
</g>
<defs>
<clipPath id="clip0_4251_5443">
<rect width="53" height="24" fill="white"/>
</clipPath>
</defs>
</svg>
