<svg width="92" height="24" viewBox="0 0 92 24" fill="none" xmlns="http://www.w3.org/2000/svg">
<g clip-path="url(#clip0_4251_5485)">
<mask id="mask0_4251_5485" style="mask-type:luminance" maskUnits="userSpaceOnUse" x="0" y="0" width="92" height="24">
<path d="M92 0H0V23.8978H92V0Z" fill="white"/>
</mask>
<g mask="url(#mask0_4251_5485)">
<path d="M64.3034 9.50777H52.2832V14.8612H58.8397C57.2845 18.0733 53.4601 19.401 50.2659 17.8164C47.1138 16.2317 45.8108 12.3344 47.3658 9.07948C48.4167 6.85245 50.6442 5.43913 53.0818 5.43913C55.0151 5.39631 56.8223 6.38134 57.873 8.0088H63.5889C62.7063 3.94016 58.2091 0 53.1237 0C48.1644 0 43.3313 3.29773 42.3226 8.1801V0.856556C36.2704 0.856556 32.2357 7.79466 31.3111 11.9061C30.3444 7.79466 26.3517 0.856556 20.2996 0.856556V22.9129H25.5532V10.193C25.5532 10.193 28.5792 12.934 28.5792 22.8701H34.001C34.001 12.934 37.0269 10.193 37.0269 10.193V22.8701H42.2804V15.2038C43.5414 20.7714 47.8702 23.8978 53.0818 23.8978C58.3354 23.8978 63.0005 20.8571 64.3034 14.9041V22.8701C64.3034 22.8701 75.1887 22.8701 75.0205 22.8701V17.645H69.4307V14.8612H75.0205V9.50777H69.4307V6.55266H75.0205V1.15635H64.3034V9.50777ZM86.5783 10.3215C81.9972 3.64037 77.5422 1.19918 76.3234 1.19918V22.9129H81.9131V12.6342C81.9131 12.6342 85.7799 16.917 86.5783 22.9129H92.042V1.15635H86.5783V10.3215ZM9.91869 3.51187C6.89264 5.82457 5.0434 9.2508 3.61444 12.3772C2.14345 15.5037 0.714481 20.1718 0 22.9129H5.46368C5.84194 21.3711 6.76656 18.0305 6.93467 17.4309H13.7853V22.9129H19.0808V0.813727C14.0375 0.299794 11.3476 2.44117 9.91869 3.51187ZM13.7433 12.3772H9.12014C10.2129 10.6641 12.0201 8.43707 13.7433 7.23789V12.3772Z" fill="#0063C3"/>
</g>
</g>
<defs>
<clipPath id="clip0_4251_5485">
<rect width="92" height="24" fill="white"/>
</clipPath>
</defs>
</svg>
