<svg width="86" height="24" viewBox="0 0 86 24" fill="none" xmlns="http://www.w3.org/2000/svg">
<g clip-path="url(#clip0_4251_5428)">
<mask id="mask0_4251_5428" style="mask-type:luminance" maskUnits="userSpaceOnUse" x="0" y="0" width="86" height="24">
<path d="M0.675781 23.2219H85.3215V0.675781H0.675781V23.2219Z" fill="white"/>
</mask>
<g mask="url(#mask0_4251_5428)">
<path d="M2.16797 17.0352C2.16797 17.0352 2.76465 18.1355 4.00581 19.288L3.77238 17.5927L2.16797 17.0352Z" fill="white"/>
<path d="M14.1604 23.2045C21.2456 23.2045 27.6419 18.2756 27.6419 11.946C27.6419 5.61636 21.2456 0.6875 14.1604 0.6875C7.075 0.6875 0.679688 5.61636 0.679688 11.946C0.679688 18.2756 7.075 23.2045 14.1604 23.2045Z" fill="white"/>
<path d="M59.1945 18.9861H56.7892L56.7548 11.3026C56.7564 10.2017 55.5988 10.177 55.5988 10.177H54.5429C54.5429 10.177 54.4 10.2017 54.2323 10.2258C52.7181 10.5444 52.2379 11.7187 52.2257 13.0402L52.2469 18.9861H49.8163L49.8119 11.327C49.8093 10.2017 48.6264 10.177 48.6264 10.177H47.5709C47.5709 10.177 47.4276 10.2017 47.2604 10.2258C45.7446 10.5444 45.2654 11.7187 45.2781 13.0402L45.2748 18.9861H42.844L42.8398 12.5749L42.8467 7.75483H45.2764L45.2817 8.7581C45.9893 7.90178 47.0394 7.73047 47.5554 7.73047H48.4388C49.5193 7.73047 50.4632 8.07283 51.4586 8.97835C52.4811 8.09738 53.3736 7.73047 54.5274 7.73047H55.4108C57.6207 7.73047 59.1933 9.12502 59.2075 11.4249L59.1945 18.9861Z" fill="#231F20"/>
<path d="M77.9984 7.73059H74.3166L74.3169 5.47538L71.8867 4.01172L71.8888 18.9862H74.3195L74.3033 10.1528H78.0593C78.3047 10.1528 78.5589 10.2018 78.7764 10.3243C79.1265 10.4956 79.3878 10.8623 79.3775 11.4986L79.3766 18.9862H81.8065L81.7906 11.4007C81.8013 9.10078 80.2095 7.73059 77.9984 7.73059Z" fill="#231F20"/>
<path d="M68.4752 5.36053L66.1891 3.98438H66.0938L66.0742 10.1502H66.0794L66.0823 15.0195C66.0892 17.0021 66.9676 18.4941 68.7593 18.9102C69.1159 18.9837 69.3611 18.9837 69.3611 18.9837H69.877L69.8654 16.5614H69.5218C68.4662 16.5614 68.4903 15.3129 68.4903 15.3129L68.486 10.1502H69.8847L69.8735 7.72805H68.4748L68.4752 5.36053Z" fill="#231F20"/>
<path d="M61.5352 3.98438H61.4261L61.4344 6.52891H63.8162L63.8233 5.36227L61.5352 3.98438ZM61.4284 18.9837H63.8346L63.8317 7.72805H61.4258L61.4284 18.9837Z" fill="#231F20"/>
<path d="M30.7989 14.8486C31.8813 15.996 33.4009 16.7994 35.0814 16.7994C37.107 16.7767 38.5344 16.0191 38.5344 14.6425C38.5344 11.43 29.211 14.5279 29.211 8.65322C29.211 6.08329 31.9045 4.31641 35.1963 4.31641C37.5914 4.31641 39.5245 5.07378 40.9514 6.51926L38.9722 8.28614C37.6596 7.00165 36.4625 6.56543 35.0585 6.56543C32.8483 6.56543 32.0196 7.64421 32.0196 8.51637C32.0196 11.7507 41.3435 8.51637 41.3435 14.505C41.3435 17.5105 38.2818 19.3231 34.9663 19.3231C32.9405 19.3231 30.5918 18.5662 28.7734 16.6614L30.7989 14.8486Z" fill="#231F20"/>
<path d="M84.1223 17.6251C84.2637 17.6251 84.3603 17.601 84.3603 17.4431C84.3603 17.3022 84.2084 17.2848 84.0911 17.2848H83.881V17.6251H84.1223ZM83.5846 17.0582H84.1052C84.4566 17.0582 84.6567 17.1612 84.6567 17.4705C84.6567 17.7213 84.505 17.8209 84.2914 17.8382L84.6567 18.4362H84.3534L84.0223 17.8519H83.881V18.4362H83.5846V17.0582ZM84.0843 18.7178C84.5774 18.7178 84.9706 18.3261 84.9706 17.7523C84.9706 17.1818 84.5774 16.7867 84.0843 16.7867C83.5846 16.7867 83.1983 17.1818 83.1983 17.7523C83.1983 18.3261 83.5846 18.7178 84.0843 18.7178ZM84.0843 16.5117C84.7704 16.5117 85.329 17.0684 85.329 17.7523C85.329 18.4362 84.7704 18.9928 84.0843 18.9928C83.3982 18.9928 82.8398 18.4362 82.8398 17.7523C82.8398 17.0684 83.3982 16.5117 84.0843 16.5117Z" fill="#231F20"/>
<path d="M20.7627 16.359C23.1581 16.359 25.321 14.3513 25.321 11.7733C25.321 9.19497 23.1581 7.18732 20.7627 7.18732C18.3669 7.18732 16.2041 9.19497 16.2041 11.7733C16.2041 14.3513 18.3669 16.359 20.7627 16.359ZM20.7627 4.86328C24.7488 4.86328 27.9075 7.88481 27.9075 11.7733C27.9075 15.6619 24.7488 18.6834 20.7627 18.6834C16.7764 18.6834 13.6172 15.6619 13.6172 11.7733C13.6172 7.88481 16.7764 4.86328 20.7627 4.86328Z" fill="white"/>
<path d="M16.2105 11.7691C16.2105 14.3459 18.3724 16.3528 20.7674 16.3528C23.1621 16.3528 25.3242 14.3459 25.3242 11.7691C25.3242 9.1918 23.1621 7.18509 20.7674 7.18509C18.3724 7.18509 16.2105 9.1918 16.2105 11.7691ZM20.7674 18.6771C16.7828 18.6771 13.6247 15.656 13.6247 11.7691C13.6247 7.8819 16.7828 4.8614 20.7674 4.8614C23.3345 4.8614 25.5567 6.11613 26.814 8.04741C24.8458 3.69716 19.7192 0.675781 14.1703 0.675781C7.07762 0.675781 0.675781 5.6109 0.675781 11.9489C0.675781 13.816 1.23487 15.5596 2.19987 17.0931L7.44362 5.13407L8.93811 5.13621L14.5758 18.4021H11.9264L10.9088 15.9094H5.27103L3.97754 19.2634C6.5121 21.6997 10.2339 23.2219 14.1703 23.2219C20.1765 23.2219 25.6866 19.682 27.234 14.7487C26.0992 17.0952 23.6499 18.6771 20.7674 18.6771ZM6.16155 13.7125H10.04L8.11127 8.95941L6.16155 13.7125Z" fill="#0D7A3F"/>
</g>
</g>
<defs>
<clipPath id="clip0_4251_5428">
<rect width="86" height="24" fill="white"/>
</clipPath>
</defs>
</svg>
