<svg width="87" height="24" viewBox="0 0 87 24" fill="none" xmlns="http://www.w3.org/2000/svg">
<g clip-path="url(#clip0_4251_5644)">
<mask id="mask0_4251_5644" style="mask-type:luminance" maskUnits="userSpaceOnUse" x="0" y="0" width="87" height="24">
<path d="M87 0H0V23.9254H87V0Z" fill="white"/>
</mask>
<g mask="url(#mask0_4251_5644)">
<path fill-rule="evenodd" clip-rule="evenodd" d="M86.9396 18.1505C86.9509 18.1994 86.9564 18.2504 86.9564 18.3032C86.9564 18.3522 86.9509 18.4011 86.9396 18.4502C86.9323 18.4992 86.9211 18.5464 86.9062 18.5917C86.8987 18.6143 86.8895 18.6369 86.8783 18.6595C86.8672 18.6784 86.856 18.6992 86.8449 18.7218C86.8338 18.7406 86.8207 18.7594 86.8058 18.7782C86.791 18.7971 86.776 18.8141 86.7612 18.8292C86.7463 18.8481 86.7296 18.8651 86.7109 18.8801C86.6925 18.8952 86.6739 18.9083 86.6553 18.9198C86.6366 18.9348 86.618 18.948 86.5994 18.9593C86.5771 18.9706 86.5568 18.9799 86.5381 18.9875C86.4898 19.0064 86.4414 19.0214 86.393 19.0329C86.3448 19.0442 86.2945 19.0498 86.2425 19.0498C86.1942 19.0498 86.144 19.0442 86.092 19.0329C86.0436 19.0214 85.9953 19.0064 85.9469 18.9875C85.9285 18.9799 85.9079 18.9706 85.8856 18.9593C85.867 18.948 85.8484 18.9348 85.8298 18.9198C85.8112 18.9083 85.7927 18.8952 85.7741 18.8801C85.7555 18.8651 85.7388 18.8481 85.7238 18.8292C85.709 18.8141 85.6941 18.7971 85.6793 18.7782C85.6643 18.7594 85.6514 18.7406 85.6403 18.7218C85.629 18.6992 85.6179 18.6784 85.6067 18.6595C85.5994 18.6369 85.5919 18.6143 85.5845 18.5917C85.5658 18.5464 85.5528 18.4992 85.5455 18.4502C85.538 18.4011 85.5343 18.3522 85.5343 18.3032C85.5343 18.2504 85.538 18.1994 85.5455 18.1505C85.5528 18.1015 85.5658 18.0544 85.5845 18.009C85.5919 17.9864 85.5994 17.9638 85.6067 17.9412C85.6179 17.9224 85.629 17.9035 85.6403 17.8846C85.6514 17.862 85.6643 17.8412 85.6793 17.8225C85.6941 17.8036 85.709 17.7866 85.7238 17.7715C85.7388 17.7526 85.7555 17.7356 85.7741 17.7206C85.7927 17.7055 85.8112 17.6922 85.8298 17.6809C85.8484 17.6659 85.867 17.6527 85.8856 17.6414C85.9079 17.6301 85.9285 17.6188 85.9469 17.6075C85.9953 17.5886 86.0436 17.5754 86.092 17.5679C86.144 17.5566 86.1942 17.5509 86.2425 17.5509C86.2945 17.5509 86.3448 17.5566 86.393 17.5679C86.4414 17.5754 86.4898 17.5886 86.5381 17.6075C86.5568 17.6188 86.5771 17.6301 86.5994 17.6414C86.618 17.6527 86.6366 17.6659 86.6553 17.6809C86.6739 17.6922 86.6925 17.7055 86.7109 17.7206C86.7296 17.7356 86.7463 17.7526 86.7612 17.7715C86.776 17.7866 86.791 17.8036 86.8058 17.8225C86.8207 17.8412 86.8338 17.862 86.8449 17.8846C86.856 17.9035 86.8672 17.9224 86.8783 17.9412C86.8895 17.9638 86.8987 17.9864 86.9062 18.009C86.9211 18.0544 86.9323 18.1015 86.9396 18.1505ZM86.8225 18.4899C86.8263 18.471 86.8299 18.4502 86.8338 18.4276C86.8374 18.405 86.8393 18.3842 86.8393 18.3655C86.843 18.3427 86.8449 18.3221 86.8449 18.3032C86.8449 18.2806 86.843 18.258 86.8393 18.2352C86.8393 18.2164 86.8374 18.1957 86.8338 18.1731C86.8299 18.1505 86.8263 18.1297 86.8225 18.1108C86.8152 18.0882 86.8077 18.0674 86.8002 18.0487C86.7927 18.0298 86.7854 18.0109 86.7779 17.9921C86.7704 17.9732 86.7612 17.9562 86.7501 17.9412C86.7389 17.9224 86.7278 17.9054 86.7165 17.8902C86.7054 17.8752 86.6942 17.8601 86.6831 17.8451C86.6683 17.8299 86.6533 17.8149 86.6385 17.7997C86.6236 17.7884 86.6088 17.7771 86.5938 17.7658C86.579 17.7545 86.5623 17.7432 86.5437 17.7319C86.5288 17.7206 86.5121 17.7111 86.4934 17.7037C86.4712 17.6961 86.4508 17.6885 86.4322 17.6809C86.4136 17.6772 86.393 17.6735 86.3708 17.6696C86.3485 17.6621 86.3281 17.6584 86.3095 17.6584C86.2871 17.6546 86.2648 17.6527 86.2425 17.6527C86.2016 17.6527 86.1607 17.6564 86.1199 17.664C86.0826 17.6716 86.0436 17.6848 86.0028 17.7037C85.9655 17.7187 85.9302 17.7376 85.8968 17.7602C85.8634 17.7866 85.8336 17.8149 85.8075 17.8451C85.7927 17.8601 85.7797 17.8752 85.7685 17.8902C85.7574 17.9054 85.7463 17.9224 85.735 17.9412C85.7238 17.9562 85.7146 17.9732 85.7071 17.9921C85.6996 18.0109 85.6923 18.0298 85.6849 18.0487C85.6774 18.0674 85.6718 18.0882 85.6681 18.1108C85.6607 18.1297 85.6551 18.1505 85.6514 18.1731C85.6476 18.1957 85.6459 18.2164 85.6459 18.2352C85.6421 18.258 85.6403 18.2806 85.6403 18.3032C85.6403 18.3221 85.6421 18.3427 85.6459 18.3655C85.6459 18.3842 85.6476 18.405 85.6514 18.4276C85.6551 18.4502 85.6607 18.471 85.6681 18.4899C85.6718 18.5086 85.6774 18.5294 85.6849 18.552C85.6923 18.5709 85.6996 18.5878 85.7071 18.603C85.7146 18.6217 85.7238 18.6406 85.735 18.6595C85.7463 18.6746 85.7574 18.6916 85.7685 18.7105C85.7797 18.7255 85.7927 18.7406 85.8075 18.7556C85.8336 18.7858 85.8634 18.8123 85.8968 18.8349C85.934 18.8575 85.9711 18.8764 86.0083 18.8914C86.0456 18.9102 86.0845 18.9235 86.1254 18.9311C86.1627 18.9385 86.2016 18.9424 86.2425 18.9424C86.2648 18.9424 86.2871 18.9424 86.3095 18.9424C86.3281 18.9385 86.3485 18.9348 86.3708 18.9311C86.393 18.9272 86.4136 18.9215 86.4322 18.9139C86.4545 18.9065 86.475 18.8989 86.4934 18.8914C86.5121 18.8839 86.5288 18.8744 86.5437 18.8631C86.5623 18.8555 86.579 18.8462 86.5938 18.8349C86.6088 18.8236 86.6236 18.8104 86.6385 18.7952C86.6533 18.7839 86.6683 18.7708 86.6831 18.7556C86.6942 18.7406 86.7054 18.7255 86.7165 18.7105C86.7278 18.6916 86.7389 18.6746 86.7501 18.6595C86.7612 18.6406 86.7704 18.6217 86.7779 18.603C86.7854 18.5878 86.7927 18.5709 86.8002 18.552C86.8077 18.5294 86.8152 18.5086 86.8225 18.4899ZM86.5103 18.2749C86.499 18.2824 86.4879 18.2899 86.4767 18.2975C86.4692 18.3051 86.46 18.3125 86.4489 18.3201C86.4341 18.3277 86.421 18.3334 86.4099 18.3371L86.633 18.7218H86.4656L86.2648 18.3655H86.1031V18.7218H85.9525V17.8394H86.2984C86.3168 17.8394 86.3374 17.8412 86.3596 17.8451C86.3782 17.8451 86.3949 17.8488 86.4099 17.8564C86.4284 17.8639 86.4452 17.8714 86.46 17.8789C86.4786 17.8902 86.4953 17.9015 86.5103 17.9128C86.5214 17.9243 86.5307 17.9374 86.5381 17.9525C86.5493 17.9675 86.5568 17.9827 86.5604 17.9977C86.5679 18.0129 86.5735 18.0298 86.5771 18.0487C86.581 18.0637 86.581 18.0789 86.5771 18.0939C86.5771 18.1091 86.5771 18.1221 86.5771 18.1334C86.5735 18.1486 86.5696 18.1618 86.566 18.1731C86.5623 18.1844 86.5585 18.1957 86.5549 18.207C86.5474 18.2222 86.5399 18.2335 86.5326 18.2409C86.5251 18.2522 86.5176 18.2636 86.5103 18.2749ZM86.2928 18.2409C86.3039 18.2409 86.3132 18.2391 86.3206 18.2352C86.3318 18.2315 86.341 18.2278 86.3485 18.2239C86.356 18.2202 86.3635 18.2164 86.3708 18.2126C86.3782 18.2051 86.3857 18.1976 86.393 18.1901C86.4005 18.1825 86.4061 18.1731 86.4099 18.1618C86.4136 18.1542 86.4172 18.1449 86.421 18.1334C86.421 18.1221 86.421 18.1128 86.421 18.1052C86.421 18.0939 86.421 18.0826 86.421 18.0713C86.4172 18.0637 86.4136 18.0544 86.4099 18.0431C86.4061 18.0355 86.4005 18.0279 86.393 18.0203C86.3894 18.0129 86.3838 18.0053 86.3763 17.9977C86.369 17.994 86.3596 17.9901 86.3485 17.9864C86.341 17.9827 86.3337 17.9788 86.3262 17.9751C86.3187 17.9714 86.3095 17.9695 86.2984 17.9695C86.2909 17.9695 86.2834 17.9695 86.2759 17.9695H86.1031V18.2465H86.2648C86.2759 18.2465 86.2853 18.2448 86.2928 18.2409ZM15.1089 1.87782C15.1089 1.25 14.8356 0.825792 14.105 0.825792C11.7293 0.825792 8.70659 5.19796 7.61351 7.01358C6.14121 9.47398 4.45139 13.2127 4.45139 16.1934C4.45139 17.3529 4.94216 18.2183 6.16352 18.2183C8.75121 18.2183 10.77 14.802 10.77 12.517C10.7775 12.3925 10.7756 12.2662 10.7645 12.138C10.7533 12.0136 10.7329 11.891 10.7031 11.7704C10.6734 11.6497 10.6343 11.5309 10.586 11.414C10.5377 11.2971 10.4801 11.1859 10.4131 11.0803C10.4875 10.9823 10.5711 10.8937 10.6641 10.8145C10.757 10.7391 10.8593 10.6731 10.9708 10.6165C11.0786 10.5637 11.192 10.5241 11.311 10.4977C11.43 10.4713 11.549 10.4581 11.6679 10.4581C12.5435 10.4581 12.9952 11.0407 12.9952 12.0362C12.9952 15.2432 9.64351 19.44 5.65042 19.44C2.62216 19.44 0.993702 17.8846 0.993702 14.8756C0.993702 8.78393 7.30678 0 14.2222 0C15.8395 0 17.4958 0.497737 17.4958 2.30204C17.4958 4.68326 15.0977 6.36312 13.0733 7.0362C12.8465 7.10785 12.6179 7.17194 12.3874 7.2285C12.1568 7.2813 11.9263 7.32655 11.6958 7.36426C11.4616 7.40195 11.2273 7.42835 10.9931 7.44344C10.7552 7.46229 10.5191 7.47171 10.2849 7.47171C10.151 7.47171 10.0172 7.46984 9.88332 7.46607C9.74946 7.45853 9.61562 7.44909 9.48178 7.43778C9.34792 7.42271 9.21408 7.40573 9.08024 7.38688C8.9464 7.36802 8.81441 7.34728 8.68427 7.32466L8.74005 7.08711C11.2329 7.00227 15.1089 4.50226 15.1089 1.87782ZM82.7681 5.42986L82.6566 5.22058C83.348 4.63802 84.0508 3.53506 84.0508 2.57352C84.0564 2.42081 84.0397 2.26811 84.0005 2.1267C83.9616 1.97963 83.8947 1.84389 83.811 1.71946C83.7218 1.59502 83.6158 1.48756 83.4987 1.39706C83.376 1.30656 83.2421 1.24434 83.0971 1.19909C83.1753 1.069 83.2757 0.950225 83.3816 0.84276C83.4932 0.735295 83.6158 0.644797 83.7496 0.571267C83.8834 0.503393 84.023 0.446832 84.1735 0.412895C84.3184 0.37896 84.4691 0.361991 84.6196 0.367646C84.8316 0.350679 85.0435 0.37896 85.2443 0.452488C85.4395 0.531674 85.6179 0.650453 85.7685 0.803167C85.9135 0.950225 86.0306 1.13688 86.0976 1.3405C86.17 1.53846 86.198 1.75339 86.1755 1.96832C86.1755 3.71606 84.1234 4.92648 82.7681 5.42986ZM0.0567789 1.97398C0.0456249 1.75339 0.0790865 1.53281 0.157163 1.32919C0.23524 1.12556 0.357932 0.944569 0.514087 0.791855C0.67024 0.639139 0.854279 0.520362 1.05505 0.452488C1.26139 0.37896 1.47889 0.350679 1.69082 0.367646C1.84139 0.367646 1.9864 0.37896 2.1314 0.412895C2.27082 0.452488 2.41025 0.503393 2.5385 0.576923C2.66678 0.650453 2.7839 0.740951 2.88986 0.848416C2.99581 0.950225 3.08506 1.069 3.15754 1.19909C3.01255 1.24434 2.87871 1.31222 2.756 1.40272C2.6389 1.48756 2.53294 1.60068 2.44928 1.71946C2.36005 1.84389 2.2987 1.98529 2.25408 2.1267C2.21506 2.27375 2.19832 2.42647 2.2039 2.57352C2.2039 3.53506 2.91217 4.63802 3.59813 5.22625L3.48659 5.43552C2.13696 4.93212 0.0567789 3.71606 0.0567789 1.97398ZM77.693 16.3575L77.9105 16.4989C77.2693 17.8846 76.3101 19.3495 74.715 19.3495C73.4323 19.3495 72.7353 18.5464 72.7353 17.2342C72.7353 16.1086 73.4156 14.5871 73.8506 13.5634L79.4833 0.53733H82.0543L75.9363 15.017C75.8657 15.1565 75.8044 15.2998 75.7524 15.4468C75.6966 15.5901 75.6464 15.7372 75.6017 15.888C75.5608 16.0388 75.5238 16.1897 75.4902 16.3405C75.4604 16.4951 75.4382 16.6497 75.4234 16.8043C75.4122 16.8835 75.4234 16.9683 75.4512 17.0475C75.4735 17.121 75.518 17.1946 75.5739 17.2511C75.6353 17.3077 75.7021 17.3529 75.7803 17.3812C75.8528 17.4095 75.9363 17.4208 76.02 17.4152C76.7171 17.4152 77.1968 16.94 77.693 16.3575ZM71.9712 16.3575L72.1943 16.5045C71.5474 17.8846 70.5825 19.3495 68.9819 19.3495C67.7049 19.3495 67.0077 18.5464 67.0077 17.2342C67.0077 16.1086 67.6825 14.5871 68.123 13.5634L73.7558 0.53733H76.3212L70.2034 15.017C70.1364 15.1565 70.075 15.2998 70.0193 15.4468C69.9634 15.5901 69.9152 15.7372 69.8743 15.888C69.8296 16.0388 69.7924 16.1897 69.7628 16.3405C69.7331 16.4951 69.7106 16.6497 69.6958 16.8043C69.6847 16.8835 69.6958 16.9683 69.7181 17.0475C69.7459 17.121 69.7907 17.1946 69.8463 17.2511C69.9078 17.3077 69.9746 17.3529 70.0527 17.3812C70.1253 17.4095 70.2089 17.4208 70.2869 17.4152C70.9897 17.4152 71.5195 16.9118 71.9712 16.3575ZM35.6376 19.3495C34.4998 19.3495 33.864 18.6595 33.864 17.4604C33.864 15.5486 36.4797 11.6007 36.4797 10.2828C36.4909 10.198 36.4797 10.1131 36.4517 10.0283C36.4239 9.94909 36.3793 9.87556 36.3179 9.81335C36.2565 9.75113 36.1841 9.70588 36.106 9.67195C36.0279 9.64366 35.9443 9.63235 35.8551 9.63801C34.7732 9.63801 33.9755 11.3744 33.6075 12.2851L30.8749 19.0385L28.209 19.0442L31.2932 11.4197C31.334 11.3292 31.3713 11.2368 31.4047 11.1425C31.4381 11.0483 31.4678 10.954 31.4939 10.8597C31.5199 10.7655 31.5421 10.6693 31.5608 10.5713C31.5794 10.4732 31.5943 10.3752 31.6055 10.2772C31.611 10.1923 31.5999 10.1018 31.5719 10.0226C31.5441 9.94343 31.4995 9.86991 31.4381 9.80769C31.3824 9.74548 31.3099 9.70022 31.2262 9.67195C31.1482 9.64366 31.0645 9.63235 30.9808 9.63801C29.9156 9.63801 29.0679 11.3688 28.7054 12.2568L25.9672 19.0442H23.2958L27.6012 8.38802H30.083L29.5364 9.77375C30.2893 8.931 31.2317 8.1957 32.4419 8.1957C32.6707 8.17308 32.8993 8.20136 33.1168 8.27488C33.3288 8.34842 33.5294 8.4672 33.6968 8.62557C33.8697 8.77828 34.0036 8.97058 34.0984 9.17986C34.1932 9.38914 34.2378 9.62104 34.2433 9.85294C35.0743 8.94231 36.0223 8.1957 37.2716 8.1957C38.348 8.1957 39.1566 8.84051 39.1566 9.93214C39.1566 11.9683 36.6191 15.5147 36.6191 16.8891C36.608 16.957 36.6135 17.0249 36.6358 17.0928C36.6525 17.1606 36.6915 17.2172 36.7362 17.2681C36.7808 17.319 36.8422 17.3586 36.9034 17.3812C36.9704 17.4038 37.0374 17.4152 37.1042 17.4095C37.6899 17.4095 38.1806 16.81 38.5543 16.3575L38.7774 16.4989C38.1305 17.9808 37.2438 19.3495 35.6376 19.3495ZM85.4952 8.33144C85.4246 8.4672 85.365 8.60483 85.3168 8.74435C85.2646 8.88762 85.222 9.03092 85.1884 9.17421C85.155 9.32127 85.1308 9.47021 85.116 9.62104C85.1011 9.77186 85.0955 9.92081 85.0993 10.0679C85.0993 11.3631 85.4228 12.8167 85.4228 14.7511C85.4228 17.5735 83.627 19.3948 80.9388 19.3948C79.3215 19.3948 78.4348 18.7331 78.4348 17.9243C78.4386 17.8338 78.4534 17.7432 78.4795 17.6527C78.5093 17.566 78.5482 17.4849 78.5966 17.4095C78.6486 17.3341 78.7099 17.2681 78.7805 17.2115C78.8512 17.155 78.9293 17.1078 79.0149 17.0701C79.238 17.6414 79.6841 18.0203 80.582 18.0203C82.2997 18.0203 82.8685 16.4593 82.8685 14.9887C82.8685 13.7104 82.7681 12.6075 82.7681 11.3462C82.7681 11.1878 82.7959 10.8088 82.7959 10.8088C82.1434 11.3518 80.7939 13.1561 80.303 13.7048L80.08 13.5577C80.2735 13.1844 80.4723 12.813 80.6768 12.4434C80.8812 12.0739 81.0932 11.7082 81.3126 11.3462C81.5282 10.9842 81.7512 10.6259 81.9818 10.2715C82.2085 9.91705 82.4427 9.56825 82.6844 9.22511C82.8071 9.06109 82.9522 8.91402 83.1083 8.78959C83.2645 8.6595 83.4373 8.55203 83.6158 8.4672C83.7999 8.37669 83.9894 8.31448 84.1902 8.27488C84.3854 8.2353 84.5862 8.21832 84.787 8.22399C84.8465 8.22399 84.9059 8.22586 84.9654 8.22964C85.0249 8.23341 85.0844 8.24095 85.1439 8.25226C85.2034 8.25979 85.2629 8.27112 85.3224 8.28619C85.3781 8.29751 85.4357 8.31259 85.4952 8.33144ZM23.4353 16.4989C22.8608 17.8168 21.9685 19.3495 20.3567 19.3495C19.2414 19.3495 18.6837 18.5689 18.6837 17.4152C18.6837 17.3586 18.6856 17.3002 18.6893 17.2398C18.6929 17.1795 18.6968 17.1191 18.7004 17.0588C18.7041 17.0023 18.7096 16.9438 18.7171 16.8835C18.7246 16.8232 18.7338 16.7647 18.745 16.7081C17.9754 17.9808 16.8433 19.3325 15.2818 19.3325C13.882 19.3325 13.2127 18.3655 13.2127 16.94C13.2127 15.1923 14.2891 12.9129 15.1981 11.4593C16.2689 9.75679 17.9141 8.1957 20.0388 8.1957C20.8309 8.1957 21.5112 8.50114 21.7733 9.20815L22.1079 8.38802H24.6678C24.1825 9.60972 22.5987 13.2975 21.9128 14.9038C21.5613 15.724 21.277 16.3858 21.277 16.8722C21.277 17.1946 21.4053 17.4095 21.7454 17.4095C22.3031 17.4095 22.8218 16.8269 23.2122 16.3575L23.4353 16.4989ZM21.1878 9.86991C21.1989 9.77942 21.1933 9.68326 21.1655 9.59277C21.1375 9.50227 21.0874 9.41742 21.0204 9.34955C20.9536 9.28168 20.8754 9.22511 20.7862 9.19684C20.6969 9.1629 20.6022 9.15159 20.5074 9.1629C18.6614 9.1629 16.0402 14.7964 16.057 16.5667C16.0625 17.1323 16.2577 17.4152 16.7206 17.4152C17.9587 17.4152 19.2915 14.5418 20.485 11.9909C20.8309 11.267 21.1878 10.4751 21.1878 9.86991ZM59.8525 10.4977C59.8525 13.8744 56.2164 19.3666 52.5747 19.3666C50.7566 19.3666 49.8532 18.3427 49.8532 16.8382C49.8532 13.1391 53.2495 7.13801 55.943 3.71606C57.3095 1.97963 59.0662 0.226244 61.0181 0.226244C62.0945 0.226244 62.7414 0.791855 62.7414 1.6629C62.7414 3.91968 59.8358 5.57693 57.9731 6.21607L57.8393 6.00113C59.2224 4.97172 60.8731 2.83371 60.8731 1.65158C60.8787 1.57805 60.8731 1.51018 60.8564 1.44231C60.834 1.37443 60.795 1.31222 60.7505 1.25566C60.7002 1.20475 60.6445 1.16516 60.5775 1.13688C60.5105 1.11425 60.4437 1.10294 60.3712 1.1086C58.6981 1.1086 55.7144 8.08823 55.0788 9.48529C55.2571 9.28733 55.4524 9.11199 55.6643 8.95362C55.8706 8.80091 56.0993 8.66516 56.3335 8.55769C56.5733 8.44458 56.8188 8.35973 57.0753 8.29751C57.3262 8.24095 57.5884 8.20136 57.8504 8.1957C59.2614 8.1957 59.8525 9.23077 59.8525 10.4977ZM57.0641 10.5882C57.0641 9.97738 56.8466 9.53054 56.2889 9.53054C55.0396 9.53054 53.7179 12.4095 53.0376 14.7002C52.9744 14.8888 52.9167 15.0792 52.8646 15.2715C52.8126 15.4638 52.7681 15.658 52.7308 15.8541C52.6899 16.0501 52.6565 16.2462 52.6304 16.4423C52.6081 16.6422 52.5914 16.842 52.5803 17.0419C52.5803 17.5226 52.7253 17.862 53.2272 17.862C54.878 17.862 57.0641 12.5339 57.0641 10.5882ZM66.924 10.345C67.1081 9.72851 66.9632 8.95362 65.9425 8.95362C65.7138 8.94796 65.4852 8.99321 65.2733 9.08372C65.0558 9.16855 64.8663 9.30431 64.7045 9.46832C64.5428 9.63801 64.42 9.83598 64.342 10.0566C64.2583 10.2772 64.2249 10.5091 64.236 10.741C64.236 11.6176 64.7379 12.1663 65.8421 12.483L65.753 12.8111C63.9349 13.06 62.1559 14.1572 62.1559 16.0124C62.1559 16.9514 62.6466 17.517 63.7563 17.517C63.9683 17.5132 64.1802 17.4925 64.3921 17.4548C64.6041 17.4133 64.8123 17.3567 65.0168 17.2851C65.2176 17.2134 65.4128 17.1229 65.6023 17.0136C65.7883 16.908 65.9649 16.7873 66.1321 16.6516L66.3274 16.81C66.121 17.1889 65.8701 17.5396 65.5745 17.8507C65.2788 18.1618 64.9442 18.4332 64.5818 18.6538C64.2138 18.8744 63.8233 19.0498 63.4106 19.1629C63.0034 19.2817 62.5797 19.3438 62.1503 19.3438C60.427 19.3438 59.2781 18.405 59.2781 16.7986C59.2781 14.8247 60.6389 13.5577 62.931 12.7998C62.7581 12.7206 62.602 12.6244 62.4569 12.5057C62.312 12.3812 62.1893 12.2398 62.0833 12.0871C61.9774 11.9287 61.8992 11.759 61.838 11.5781C61.7821 11.4027 61.7487 11.2161 61.7431 11.0237C61.7431 9.04976 64.0464 8.16741 66.0206 8.16741C67.3759 8.16741 68.5135 8.58032 68.5135 9.45136C68.5135 10.1753 67.5989 10.4299 66.924 10.345ZM49.7528 10.4638C49.7528 13.4446 47.2822 19.3495 43.8022 19.3495C42.6868 19.3495 41.9339 18.75 41.761 17.7319L39.2792 23.8802H36.6525L43.6125 6.67421H46.2392L45.0905 9.51923C45.2577 9.31562 45.4474 9.13461 45.6482 8.97625C45.8545 8.81222 46.0776 8.67648 46.3062 8.56334C46.5404 8.45022 46.7858 8.35973 47.0368 8.29751C47.2878 8.2353 47.5442 8.20137 47.8064 8.19005C49.1616 8.19005 49.7528 9.16855 49.7528 10.4638ZM47.0088 10.6561C47.0088 10.0453 46.8193 9.6267 46.2615 9.6267C45.2913 9.6267 44.4547 11.0407 44.0642 12.0362L42.7203 15.3563C42.6682 15.477 42.6199 15.5995 42.5753 15.724C42.5306 15.8484 42.4897 15.9747 42.4525 16.1029C42.4191 16.2311 42.3912 16.3612 42.3689 16.4932C42.3465 16.6214 42.3298 16.7515 42.3187 16.8835C42.3075 17.0023 42.3187 17.121 42.3522 17.2342C42.3912 17.3473 42.4525 17.4491 42.5306 17.5339C42.6143 17.6188 42.7147 17.6809 42.8207 17.7263C42.9322 17.7658 43.0437 17.7828 43.1608 17.7771C44.1201 17.7771 44.873 16.5441 45.3525 15.6674C45.9716 14.5192 47.0088 11.94 47.0088 10.6561Z" fill="#BA0018"/>
</g>
</g>
<defs>
<clipPath id="clip0_4251_5644">
<rect width="87" height="24" fill="white"/>
</clipPath>
</defs>
</svg>
