<svg width="123" height="24" viewBox="0 0 123 24" fill="none" xmlns="http://www.w3.org/2000/svg">
<g clip-path="url(#clip0_4251_5650)">
<mask id="mask0_4251_5650" style="mask-type:luminance" maskUnits="userSpaceOnUse" x="0" y="0" width="123" height="24">
<path d="M123 0H0V23.8928H123V0Z" fill="white"/>
</mask>
<g mask="url(#mask0_4251_5650)">
<path d="M30.4861 11.9786V11.9458C30.4684 11.167 30.6086 10.3926 30.8989 9.66912C31.1892 8.94562 31.6231 8.28797 32.1749 7.73558C32.7267 7.18319 33.385 6.74744 34.1099 6.45454C34.8351 6.16162 35.6122 6.01755 36.3948 6.03097C37.2299 5.99847 38.0629 6.14009 38.8403 6.44678C39.6174 6.75344 40.3214 7.21843 40.9076 7.81189L39.6112 9.29859C39.192 8.86375 38.6904 8.51572 38.1357 8.27457C37.5807 8.0334 36.9834 7.90385 36.3783 7.89337C34.2115 7.89337 32.6029 9.67426 32.6029 11.9127V11.9454C32.6029 14.1842 34.195 15.9974 36.3948 15.9974C37.8063 15.9974 38.7089 15.4417 39.6934 14.5271L40.9898 15.8341C40.4127 16.495 39.6949 17.0197 38.8887 17.3701C38.0826 17.7206 37.208 17.8879 36.3288 17.8601C35.5532 17.8704 34.7835 17.7248 34.0656 17.4321C33.3478 17.1393 32.6967 16.7054 32.1513 16.1563C31.6056 15.6072 31.1771 14.9542 30.891 14.2363C30.6049 13.5185 30.4672 12.7506 30.4861 11.9786ZM43.9637 11.9786V11.9458C43.978 10.372 44.6149 8.86723 45.7364 7.75784C46.8576 6.64843 48.3732 6.02386 49.9543 6.01955C51.5351 6.01524 53.0541 6.63155 54.1816 7.73482C55.3092 8.83811 55.9542 10.3394 55.9771 11.9131V11.9458C55.9628 13.5197 55.3259 15.0245 54.2047 16.1338C53.0832 17.2433 51.5676 17.8678 49.9868 17.8721C48.4057 17.8764 46.8867 17.2601 45.7593 16.1569C44.6318 15.0536 43.9866 13.5523 43.9637 11.9786ZM53.8603 11.9786V11.9458C53.8802 11.4221 53.7939 10.8998 53.6066 10.41C53.4194 9.92021 53.1351 9.47293 52.7707 9.09481C52.4062 8.71671 51.969 8.41551 51.4849 8.20916C51.001 8.00284 50.4805 7.89559 49.954 7.89381C47.6726 7.89381 46.081 9.69106 46.081 11.9131V11.9458C46.0613 12.4695 46.1474 12.9918 46.3346 13.4816C46.5218 13.9715 46.8062 14.4187 47.1708 14.7969C47.5351 15.175 47.9725 15.4762 48.4564 15.6825C48.9403 15.8888 49.4608 15.9961 49.9873 15.9979C52.2682 15.9979 53.8603 14.2006 53.8603 11.9786ZM62.0641 8.08982H58.4039V6.22701H67.7423V8.08972H64.0828V17.6641H62.0641V8.08982ZM71.5201 6.22701H80.0381V8.02426H73.5388V10.998H79.2999V12.8121H73.5388V15.8673H80.1198V17.6646H71.5201V6.22701ZM116.073 6.14519H117.944L122.999 17.6638H120.866L119.7 14.9024H114.268L113.086 17.6638H111.018L116.073 6.14519ZM118.962 13.1214L116.976 8.54634L115.006 13.1214H118.962ZM91.1081 13.3343C92.6995 12.8768 93.8321 11.7498 93.8321 9.87018V9.8379C93.8557 8.9225 93.5135 8.03519 92.8805 7.37075C91.9689 6.57116 90.778 6.16037 89.565 6.22701H84.4457V17.6641H86.4644V8.0571H89.4021C90.8956 8.0571 91.7819 8.727 91.7819 9.9521V9.9844C91.7819 11.1445 90.8626 11.8963 89.4181 11.8963H87.7293L88.9901 13.6772L91.8134 17.6642H94.2094L91.1081 13.3343ZM105.222 13.3343C106.813 12.8768 107.946 11.7498 107.946 9.87018V9.8379C107.969 8.92245 107.627 8.03511 106.994 7.37075C106.083 6.57119 104.892 6.16039 103.679 6.22701H98.558V17.6641H100.577V8.0571H103.515C105.008 8.0571 105.894 8.727 105.894 9.9521V9.9844C105.894 11.1445 104.975 11.8963 103.531 11.8963H101.842L103.103 13.6772L105.926 17.6642H108.322L105.222 13.3343Z" fill="#003946"/>
<path d="M9.88684 17.9562C12.0593 18.7456 14.4311 18.8083 16.6426 18.1347C18.8541 17.4612 20.7847 16.0882 22.1417 14.224C22.6073 11.8598 22.2488 9.40814 21.1252 7.2743C20.0016 5.14045 18.1804 3.4521 15.9624 2.48828L14.158 6.61993C15.5843 7.24278 16.7167 8.38608 17.3221 9.81467C17.9276 11.2433 17.9601 12.8485 17.413 14.3003C16.8659 15.752 15.7808 16.9399 14.3809 17.6195C12.981 18.2991 11.3726 18.4188 9.88672 17.954L9.88684 17.9562Z" fill="url(#paint0_linear_4251_5650)"/>
<path d="M22.1416 14.2227C20.7653 16.1137 18.7994 17.4985 16.5502 18.1613C14.301 18.8241 11.8947 18.7277 9.70624 17.8871L9.30223 17.7367L6.61328 23.8926L9.93426 22.5905C12.6637 23.0588 15.4688 22.4456 17.75 20.8819C20.0312 19.3182 21.6074 16.9281 22.1416 14.2227Z" fill="#00999E"/>
<path d="M12.4532 5.93851C10.2807 5.1491 7.90897 5.08639 5.69748 5.75988C3.48599 6.43335 1.55538 7.80632 0.198352 9.67058C-0.266878 12.0346 0.0919072 14.4858 1.21543 16.6193C2.33895 18.7528 4.15996 20.4409 6.3776 21.4046L8.18208 17.273C6.75474 16.6508 5.62132 15.5075 5.01515 14.0785C4.40896 12.6495 4.37614 11.0435 4.92344 9.59116C5.47074 8.13879 6.55651 6.95057 7.95724 6.2711C9.35799 5.59161 10.967 5.47259 12.4532 5.93851Z" fill="url(#paint1_linear_4251_5650)"/>
<path d="M0.199219 9.66997C1.57548 7.77896 3.54136 6.39419 5.79059 5.7314C8.03979 5.06858 10.4461 5.16497 12.6346 6.00551L13.0385 6.15593L15.7275 0L12.4065 1.30213C10.0653 0.905096 7.65802 1.29989 5.56848 2.42355C3.47893 3.54722 1.82747 5.33503 0.877487 7.50194C0.573842 8.19825 0.346439 8.92514 0.199219 9.66997Z" fill="#00999E"/>
</g>
</g>
<defs>
<linearGradient id="paint0_linear_4251_5650" x1="20.6964" y1="4.51785" x2="7.74477" y2="22.4454" gradientUnits="userSpaceOnUse">
<stop offset="0.1" stop-color="#00999E"/>
<stop offset="0.75" stop-color="#003946"/>
</linearGradient>
<linearGradient id="paint1_linear_4251_5650" x1="1.64396" y1="19.3752" x2="14.5936" y2="1.44856" gradientUnits="userSpaceOnUse">
<stop offset="0.1" stop-color="#00999E"/>
<stop offset="0.75" stop-color="#003946"/>
</linearGradient>
<clipPath id="clip0_4251_5650">
<rect width="123" height="24" fill="white"/>
</clipPath>
</defs>
</svg>
