<svg width="54" height="24" viewBox="0 0 54 24" fill="none" xmlns="http://www.w3.org/2000/svg">
<g clip-path="url(#clip0_4251_5660)">
<mask id="mask0_4251_5660" style="mask-type:luminance" maskUnits="userSpaceOnUse" x="0" y="0" width="54" height="24">
<path d="M54 0H0V23.9217H54V0Z" fill="white"/>
</mask>
<g mask="url(#mask0_4251_5660)">
<mask id="mask1_4251_5660" style="mask-type:luminance" maskUnits="userSpaceOnUse" x="-438" y="-246" width="529" height="300">
<path d="M-437.02 -245.645H90.2463V53.8734H-437.02V-245.645Z" fill="white"/>
</mask>
<g mask="url(#mask1_4251_5660)">
<path fill-rule="evenodd" clip-rule="evenodd" d="M9.09968 22.1453H10.4437V23.6955H7.03768V22.1453C6.35375 23.3655 5.44524 23.9189 3.93446 23.9189C1.24298 23.9189 0.0078125 21.8119 0.0078125 19.3717C0.0078125 16.3196 1.62748 14.6561 4.04675 14.6561C5.44524 14.6561 6.46264 15.2954 6.90157 16.2646V12.6317H5.61197V11.0781H9.09968V22.1453ZM6.98324 19.2067C6.98324 17.6531 6.29591 16.2371 4.6218 16.2371C2.92047 16.2371 2.31481 17.7081 2.31481 19.3167C2.31481 21.1761 3.13825 22.3687 4.4857 22.3687C6.35375 22.3687 6.98324 21.0627 6.98324 19.2067ZM19.0116 19.9285H12.4207C12.4207 21.4235 13.2168 22.2829 14.6732 22.3962H14.7821C15.7995 22.3412 16.5413 21.8119 16.8714 20.9527H18.9572C18.6271 23.1146 16.759 23.9189 14.8365 23.9189C11.8184 23.9189 10.1681 22.1453 10.1681 19.2067C10.1681 16.4055 11.9818 14.6561 14.7821 14.6561C16.9802 14.6561 18.5182 15.9071 18.9027 17.959C19.0116 18.6224 19.0116 19.2617 19.0116 19.9285ZM16.8714 18.4575C16.8169 17.0414 16.0479 16.1822 14.6732 16.1822C13.3292 16.1822 12.4207 17.0998 12.4207 18.4575H16.8714ZM29.3659 16.4606H28.3791L25.3848 23.7263H22.775L19.8384 16.4606H18.8211V14.8795H23.5167V16.4606H22.1454L24.1768 21.8119L26.2898 16.4606H24.9185V14.8795H29.3659V16.4606ZM38.2366 19.3167C38.2366 22.2004 36.4264 23.9223 33.6226 23.9223C30.8221 23.9223 28.9542 22.2004 28.9542 19.3167C28.9542 16.4055 30.8221 14.6595 33.6226 14.6595C36.4264 14.6595 38.2366 16.4055 38.2366 19.3167ZM35.984 19.3167C35.984 17.7631 35.3545 16.2371 33.6226 16.2371C31.9213 16.2371 31.2612 17.7631 31.2612 19.3167C31.2612 20.8427 31.9213 22.3412 33.6226 22.3412C35.3545 22.3412 35.984 20.8427 35.984 19.3167ZM49.057 22.1453V23.7263H44.3341V22.1453H45.5692V18.1791C45.5692 17.1548 45.0214 16.2371 43.8951 16.2371C42.3844 16.2371 41.806 17.4882 41.806 18.7909V22.1453H43.0445V23.7263H38.3182V22.1453H39.6112V16.4606H38.3182V14.8795H41.6426V16.4055H41.697C42.2482 15.3229 43.3711 14.6595 44.6642 14.6595C46.9167 14.6595 47.7673 15.8488 47.7673 18.0415V22.1453H49.057Z" fill="#505050"/>
<path d="M38.3177 6.14383H53.9972V8.4157H38.3177V6.14383ZM43.6462 0.015625H53.9972V2.40092H43.6462V0.015625ZM33.8398 3.15019H53.9972V5.42548H33.8398V3.15019Z" fill="#F54123"/>
</g>
</g>
</g>
<defs>
<clipPath id="clip0_4251_5660">
<rect width="54" height="24" fill="white"/>
</clipPath>
</defs>
</svg>
