<svg width="55" height="24" viewBox="0 0 55 24" fill="none" xmlns="http://www.w3.org/2000/svg">
<g clip-path="url(#clip0_4251_5671)">
<mask id="mask0_4251_5671" style="mask-type:luminance" maskUnits="userSpaceOnUse" x="0" y="0" width="55" height="24">
<path d="M55 0H0V23.9381H55V0Z" fill="white"/>
</mask>
<g mask="url(#mask0_4251_5671)">
<path d="M5.3065 5.24713L4.17188 4.11689L8.30422 0L12.4366 4.11695L11.302 5.24718L8.3042 2.26078L5.3065 5.24713Z" fill="#44B8F3"/>
<path d="M0.00010337 6.29689L6.05801 6.29693L6.05799 7.99843L1.82466 7.9984L1.82464 10.0636L5.47416 10.0636L5.47414 11.7797H1.82461L1.82459 13.9028H6.05792L6.0579 15.6189H0L0.00010337 6.29689ZM7.41088 5.61328L9.19193 5.61329L9.19183 14.2916L9.19182 15.6189H7.41077L7.41088 5.61328ZM10.2806 12.1431C10.2806 10.1074 11.799 8.44927 13.8135 8.44928C15.8133 8.44929 17.3313 9.99083 17.3313 11.9977C17.3313 12.216 17.3165 12.4631 17.2873 12.5797H12.1055C12.2803 13.5538 13.0251 14.252 14.1053 14.252C14.8058 14.252 15.4042 13.9467 15.8132 13.525L16.7328 14.732C16.2071 15.3427 15.2147 15.8227 14.032 15.8227C11.8571 15.8227 10.2805 14.1645 10.2806 12.1431ZM12.1344 11.4598H15.5067C15.3022 10.4708 14.6744 9.96165 13.8423 9.96164C12.952 9.96163 12.3389 10.5728 12.1344 11.4598ZM24.9115 8.65308L22.3859 15.619H20.0796L17.5396 8.65303L19.4959 8.65304L21.2765 14.0338L23.0869 8.65307L24.9115 8.65308ZM30.5361 14.8629C30.0251 15.4591 29.3099 15.8228 28.405 15.8228C26.5511 15.8228 25.0474 14.3101 25.0474 12.1432C25.0474 10.0346 26.4635 8.44938 28.4051 8.44939C29.3247 8.4494 30.0398 8.78396 30.5362 9.351V8.65313L32.3315 8.65314L32.3314 15.6191H30.5361V14.8629ZM30.5361 12.1286C30.5361 11.0091 29.7625 10.1218 28.697 10.1217C27.6168 10.1217 26.8285 11.0091 26.8285 12.1286C26.8285 13.2485 27.6167 14.1501 28.6969 14.1501C29.7625 14.1501 30.5361 13.2485 30.5361 12.1286ZM35.5164 15.6191H33.7354L33.7355 8.65315L35.5165 8.65317V9.33646C35.9544 8.76942 36.6259 8.44946 37.487 8.44947C39.1074 8.44948 40.1437 9.58394 40.1437 11.4017V15.6192H38.3631V11.6637C38.3631 10.7184 37.8081 10.1218 36.9471 10.1218C36.0564 10.1218 35.5165 10.7184 35.5165 11.6637L35.5164 15.6191ZM44.8533 10.1219C43.6856 10.1219 42.8974 11.0092 42.8974 12.1287C42.8974 13.2486 43.7003 14.1502 44.8385 14.1502C45.5541 14.1502 46.1232 13.9032 46.5611 13.4669L47.4661 14.7756C46.9115 15.3868 45.9045 15.8229 44.7951 15.8229C42.7221 15.8229 41.1162 14.1648 41.1162 12.1433C41.1164 10.1076 42.7221 8.44951 44.7658 8.44952C45.9627 8.44953 46.9116 8.85697 47.5246 9.49654L46.5029 10.7618C46.0648 10.3402 45.5395 10.1219 44.8533 10.1219ZM47.9486 12.1434C47.9487 10.1077 49.4667 8.44955 51.4814 8.44958C53.4812 8.44959 54.9992 9.99112 54.9992 11.998C54.9992 12.2163 54.9846 12.4634 54.9553 12.58H49.7736C49.9484 13.554 50.6932 14.2523 51.7733 14.2523C52.4739 14.2523 53.0723 13.9469 53.4812 13.5253L54.4008 14.7323C53.8751 15.3431 52.8827 15.8229 51.7001 15.8229C49.5251 15.8229 47.9486 14.1649 47.9486 12.1434ZM49.8024 11.4601H53.1747C52.9702 10.471 52.3425 9.96194 51.5104 9.96194C50.62 9.96193 50.0069 10.5731 49.8024 11.4601ZM31.101 21.1815H28.5206L28.5205 23.8005H27.299L27.2991 17.5597H28.5206V20.0423L31.101 20.0425V17.5597L32.3325 17.5598L32.3324 23.8006H31.1009L31.101 21.1815ZM33.1087 21.4736C33.1087 20.1108 34.125 19.0007 35.4739 19.0008C36.8127 19.0008 37.8289 20.0328 37.8289 21.3764C37.8289 21.5225 37.8191 21.6879 37.7995 21.766H34.3305C34.4475 22.418 34.946 22.8855 35.6692 22.8855C36.1382 22.8855 36.5388 22.6811 36.8126 22.3988L37.4282 23.2068C37.0763 23.6157 36.4119 23.937 35.6202 23.937C34.1641 23.937 33.1087 22.8269 33.1087 21.4736ZM34.3498 21.0162L36.6075 21.0163C36.4705 20.3541 36.0503 20.0133 35.4932 20.0132C34.8972 20.0132 34.4867 20.4224 34.3498 21.0162ZM42.1067 23.2945C41.7646 23.6936 41.2859 23.9371 40.68 23.9371C39.4389 23.9371 38.4322 22.9243 38.4322 21.4737C38.4322 20.0621 39.3802 19.0008 40.6801 19.0009C41.2958 19.0009 41.7745 19.2248 42.1068 19.6044V19.1372H43.3088L43.3087 23.8008H42.1067V23.2945ZM42.1068 21.464C42.1068 20.7146 41.5889 20.1205 40.8755 20.1205C40.1523 20.1205 39.6246 20.7145 39.6246 21.4639C39.6245 22.2137 40.1523 22.8174 40.8755 22.8174C41.5888 22.8174 42.1068 22.2137 42.1068 21.464ZM44.3219 17.1024H45.5143L45.5142 23.136V23.8009L44.3218 23.8008L44.3219 17.1024ZM46.3126 19.1374H47.1434V17.9302H48.3358V19.1374L49.6059 19.1375V20.189H48.3452V22.1653C48.3452 22.6035 48.531 22.8175 48.8827 22.8175C49.0977 22.8175 49.3127 22.7202 49.43 22.584L49.9675 23.4699C49.7035 23.7231 49.2639 23.9374 48.6872 23.9374C47.7393 23.9372 47.1335 23.3432 47.1335 22.2041L47.1336 20.1889H46.3126V19.1374ZM51.8964 23.801H50.704L50.7042 17.1025H51.8966L51.8965 19.5949C52.1896 19.2153 52.6393 19.0011 53.2157 19.0011C54.3006 19.0011 54.9943 19.7607 54.9943 20.9776V23.801H53.8021L53.8022 21.1529C53.8022 20.5202 53.4307 20.1207 52.8542 20.1207C52.2579 20.1207 51.8965 20.52 51.8965 21.1529L51.8964 23.801Z" fill="#1A3673"/>
</g>
</g>
<defs>
<clipPath id="clip0_4251_5671">
<rect width="55" height="24" fill="white"/>
</clipPath>
</defs>
</svg>
